<svg xmlns="http://www.w3.org/2000/svg" viewBox="0 0 9.03 9.93"><defs><style>.cls-1{fill:#1d1d1b;}</style></defs><g id="Camada_2" data-name="Camada 2"><g id="Camada_1-2" data-name="Camada 1"><path class="cls-1" d="M.74,1.46a.48.48,0,0,0,0-.2A1.55,1.55,0,0,0,.66,1h0l0,0c.18,0,.26.22.36.33a2.19,2.19,0,0,1,.63,1.82C1.53,3.59,1.18,4,1,4.52a5.17,5.17,0,0,0-.1.79c0,.06.4,1.06.15.75A4.44,4.44,0,0,1,0,3.37C0,2.6.72,2.16.74,1.46ZM.69,4.69A3,3,0,0,1,.94,4,2.9,2.9,0,0,0,1,2.47c-.15,1.19-.7,1-.32,2.4C.7,4.87.69,4.74.69,4.69ZM7.69,6c0-1-.77-.93-.42-2.11,0-.08.11-.16,0-.12A2.35,2.35,0,0,0,5.82,5.64a6.34,6.34,0,0,1-.38,2.49A3.55,3.55,0,0,1,4.8,9c-.12.15-.18.42-.39.45-.33-.67.72-1.1.09-2.23-.3-.8.27-1.14,0-1.09A1.36,1.36,0,0,0,3.6,7.56c0,.12-.25.21-.31.07a.72.72,0,0,1,0-.33,2.48,2.48,0,0,0,0-1.48,2.7,2.7,0,0,0-.73-.7c-.09,0-.25-.55-.33-.32s.11.55.13.82c.11.54-.48.94-.34,1.49,0,.13-.12-.05-.13-.11a1.14,1.14,0,0,0-.31-.39,3.43,3.43,0,0,1-.37-1.19,2.51,2.51,0,0,1,.55-1.67c.13-.48.41-1,.13-1.5C1.83,2.13,1.83,2,2,2A2,2,0,0,1,4.26,3.38c.07,0,.15,0,.16-.09a1.89,1.89,0,0,1,.87-1,2.37,2.37,0,0,1,2-.11A2.26,2.26,0,0,1,8.32,4.25,3.36,3.36,0,0,1,7.69,6ZM1.77.94c0-.11.06-.23.07-.34s-.05-.32,0-.29c.61.53.3.81.51,1.38.05.05,0,.12,0,.07-.83-.08-.47.33-.9-.32C1.44,1.24,1.74,1.13,1.77.94Zm.8,5.15a1.58,1.58,0,0,0,0-.53c0-.06-.09-.19,0-.16.68.52.62,1.14.39,1.88s.65.91.78.25c0-.15,0-.32,0-.5s.17-.39.35-.48c0,.13,0,.35,0,.48a2.32,2.32,0,0,1,.2,1.22c-.11.39-.48.81-.2,1.22.32.71.92-.59,1.14-.86a2.2,2.2,0,0,0,.48-.92,4.9,4.9,0,0,0,.28-1.26,3.88,3.88,0,0,1,.24-1.58c0-.09.73-1,.66-.66-.28.7.54,1.28.48,2,.21,1.06-.93,1.6-1.6,2.16S5.2,9.63,4.53,9.91,3.78,9.21,3.31,9c-.27-.19-.6-.31-.76-.6a1.82,1.82,0,0,1-.36-1.2C2.23,6.8,2.49,6.48,2.57,6.09ZM3.24.86l0,0h.05c.08.32.58.29.84.18a.73.73,0,0,0,.37-1,1.36,1.36,0,0,1,.87.49c.22.23.22.63.52.79A.7.7,0,0,0,7,.48a.82.82,0,0,1,.5.72c0,.26-.2.49-.2.73a2.49,2.49,0,0,0-2.78.72c-.29.46-.16.38-.46,0a3.59,3.59,0,0,0-.39-.39A.8.8,0,0,0,3.3,2s0-.06,0-.09c.17-.21,0-.44-.07-.65A.58.58,0,0,1,3.24.86Zm4.85,0c.08-.12.24.07.29.14a.84.84,0,0,1,0,1.08.7.7,0,0,0-.13.29s0,0,0,0c-.22,0-.35-.29-.41-.48C7.69,1.51,8.33,1.21,8.09.84Zm.75,1.49c.08,0,0,.08,0,.12s0,.13-.05.18c0,.45.28.9.24,1.36a1.66,1.66,0,0,1-.27.77c-.09.11-.18.32-.34.35a1.09,1.09,0,0,1,0-.24,2.22,2.22,0,0,0,0-1,3.74,3.74,0,0,0-.2-1.08h0A1.34,1.34,0,0,1,8.84,2.33Z"/></g></g></svg>