<svg xmlns="http://www.w3.org/2000/svg" viewBox="0 0 9.2 9.27"><defs><style>.cls-1{fill:#1d1d1b;}</style></defs><g id="Camada_2" data-name="Camada 2"><g id="Camada_1-2" data-name="Camada 1"><path class="cls-1" d="M.15,1.73C.1,1.68,0,1.64,0,1.56c-.2-.05.7-1,.82-1s.29-.08.42.07.32.2.36.36-.15.12-.14.2c.19.24.55.31.72.6,0,.06,0,.08,0,.13a6.42,6.42,0,0,1-.54.63c-.05.07-.08.14-.17.06-.27-.18-.39-.82-.81-.52A.12.12,0,0,1,.51,2C.37,1.94.28,1.82.15,1.73Zm.51,1s.11,0,.16,0,.2,0,.15.14a1.88,1.88,0,0,0-.44.24c-.19.07-.25-.22-.1-.29A.46.46,0,0,1,.66,2.69Zm.47.52c.11,0,.26,0,.32-.1S1.25,3,1.14,3c-.11-.17,0-.26.21-.26s.36.2.51.34c.37.27.19-.1,0-.27s.05-.23.17-.21.13.3.29.32c.16-.14-.11-.34-.11-.5a.26.26,0,0,1,.18-.25c.06,0,.08.11.15.12.29,0-.37-.67-.27-.88s.05-.18.14-.17.1,0,.11,0,0,.08,0,.11.07.4.22.49,0-.09,0-.13a1.39,1.39,0,0,1-.06-.57C2.75.89,3,.64,3,1c0,.14,0,.29,0,.44a1.76,1.76,0,0,0,.15.82c.1.16.34.37.29.58-.3.24-.56.54-.87.78-.2.08-.29-.22-.47-.25a.79.79,0,0,0-.72.18c-.07.06-.16.13-.25.11s-.1,0-.15,0a.3.3,0,0,1-.12-.19C.82,3.27,1,3.21,1.13,3.21Zm2.12,0c.19-.12.37-.43.63-.35s.14.24.16.4a2,2,0,0,0,.84.81c.9.53,2.09.53,2.87,1.27C8.07,5.77,9.2,6.56,9.2,7c0,1.12-1.53,2.56-2.65,2.23A8.85,8.85,0,0,1,5.36,8.11.88.88,0,0,1,5.24,8c0-.1-.18-.14-.26-.21a2.18,2.18,0,0,1-.37-.49c-.4-.7-.35-1.63-.88-2.23-.27-.26-.46-.74-.86-.8-.19,0-.43-.1-.35-.32A6.59,6.59,0,0,1,3.25,3.24ZM2.86.18c.09-.28.6-.23.41.1A2.1,2.1,0,0,1,3,.41c-.06,0-.1.11-.18.09S2.82.28,2.86.18ZM6.3,8.06a1.34,1.34,0,0,0,1.11,0,1,1,0,0,0,.66-1A1.32,1.32,0,0,0,5.88,6,1.44,1.44,0,0,0,6.3,8.06Zm0-1.51c0,.08-.1,0-.15.08s0,.16.06.16a.23.23,0,0,0,.14-.07,1.48,1.48,0,0,0,.13-.45c0-.11.14-.24.28-.23s.28.23.14.33a.19.19,0,0,1-.16.06c-.07,0-.06-.11,0-.12.22,0,.11-.24,0-.16s-.08.42-.22.58a.32.32,0,0,1-.18.13.18.18,0,0,1-.24-.23C6.12,6.54,6.31,6.39,6.35,6.55Zm.23.3h0s0,0,0,.06a.24.24,0,0,0,.09.22l0,0h0s.07,0,.11,0a.41.41,0,0,1,.19.11.44.44,0,0,1,.1.16.22.22,0,0,1-.05.22.17.17,0,0,1-.22,0l0,0,0,0s0-.12,0-.16a.05.05,0,0,1,.1,0v.05h0A.12.12,0,0,0,7,7.66s.1,0,.12-.07h0s0,0,0,0a.2.2,0,0,0,0-.15L7,7.39H7a1.73,1.73,0,0,0-.24-.1s0,0,0,0a.37.37,0,0,1-.13-.12.43.43,0,0,1-.08-.27A.08.08,0,0,1,6.58,6.85Zm.14-.25c0-.09.18-.14.25-.06H7a.23.23,0,0,1,.06.19h0c0,.09-.14,0-.1-.06s0,0,0,0a.08.08,0,0,0,0-.09s0,0,0,0,0,0-.08,0l0,0h0v.06a.18.18,0,0,0,.12.12h0v0l.09,0L7.2,7a.34.34,0,0,1,.12.12.51.51,0,0,1,.07.15h0c0,.08,0,.23-.12.12s0-.1,0-.15a.26.26,0,0,0-.14-.15H7.07a.07.07,0,0,0-.06,0H7A.4.4,0,0,1,6.84,7h0a.41.41,0,0,1-.1-.21S6.71,6.66,6.72,6.6Z"/></g></g></svg>