<svg xmlns="http://www.w3.org/2000/svg" viewBox="0 0 8.05 10.01"><defs><style>.cls-1{fill:#1d1d1b;}</style></defs><g id="Camada_2" data-name="Camada 2"><g id="Camada_1-2" data-name="Camada 1"><path class="cls-1" d="M1.06,4.1c.05.22-.1.41-.07.65.06.41.53.9,1,.65s.31-.82.38-1.24A7.14,7.14,0,0,1,2.58,3c.12-.25.17-.52.3-.75.06-.07.21,0,.28,0A1.56,1.56,0,0,0,3.91.84C4,.67,3.83,0,4,0,4.48.41,5,.78,5.53,1.25a2.08,2.08,0,0,1,.89,1.33s0,.11,0,.13a.9.9,0,0,0,0,.34c0,.49,0,.94,0,1.42s.64.56.78,0a2,2,0,0,1,0-.43c.07,0,.09.09.09.14s0,.09,0,.11A3.45,3.45,0,0,1,8,6.21a2.28,2.28,0,0,1-.9,1.93c-.1,0-.65.5-.36.53.11,0,.25,0,.32-.06s-.12.25-.17.31a3.79,3.79,0,0,1-1.67.88c-.09.1-.23.08-.35.12a1.47,1.47,0,0,1-.66.08,2.79,2.79,0,0,1-.91-.08A4.29,4.29,0,0,1,.5,8.4c.15-.08.3,0,.43.08C1.84,8.77.3,7.69.3,7.39A3,3,0,0,1,0,5.81,3.05,3.05,0,0,1,1.06,4.1Zm.88-2.38c.12-.33,0,.39,0,.48a2.19,2.19,0,0,1-.21,1.09.86.86,0,0,1-.41.39c-.16-.05-.17-.27-.17-.4C1.17,2.64,1.84,2.33,1.94,1.72ZM1.66,8a3,3,0,0,0,.86,1.14c.15.12.29.25.44.36a.26.26,0,0,0,.21.16,2.77,2.77,0,0,0,1.25.06,3,3,0,0,0,.8-.22c.29-.18.54-.42.85-.59a2.43,2.43,0,0,0,.63-.86c.09-.17.07-.38.2-.54a.14.14,0,0,0,0-.13.35.35,0,0,1-.48,0c-.36-.18.14-.78.14-1.05a3.09,3.09,0,0,0,0-.53s0,0,0,0a.67.67,0,0,1-.85.22c-.53-.32-.22-1-.26-1.54a4.49,4.49,0,0,0-.94-2.83s-.08-.13-.08,0a3,3,0,0,1-.78,1.77,4.8,4.8,0,0,0-1,2.35c-.08.52-.64,1.1-1.2.91-.21-.27-.14.16-.14.29A8.28,8.28,0,0,0,1.66,8Zm.86-.72c0,.21.14.39.37.3.63-.39.4-1.6.8-2.23a1.52,1.52,0,0,1,.78-.8s0,.13,0,.15a1.94,1.94,0,0,0-.06,1c.1,1.06.9,1,1.06,1.73a2.66,2.66,0,0,1-.82,1.94,1.34,1.34,0,0,1-1.33,0C3,9.2,3,8.84,2.85,8.56a1.41,1.41,0,0,1-.42-.9C2.38,7.6,2.5,7.1,2.52,7.29ZM3.76,9.63h0Z"/></g></g></svg>