<svg xmlns="http://www.w3.org/2000/svg" viewBox="0 0 8.87 8.81"><defs><style>.cls-1{fill:#1d1d1b;}</style></defs><g id="Camada_2" data-name="Camada 2"><g id="Camada_1-2" data-name="Camada 1"><path class="cls-1" d="M.07,3.79A3.74,3.74,0,0,1,.44,2.51,4.25,4.25,0,0,1,2,.72,5.19,5.19,0,0,1,4.9,0,7.12,7.12,0,0,1,7,.76c.25.14.47.44.73.61A1.68,1.68,0,0,1,8.17,2a4.87,4.87,0,0,1,.7,2.41A4.44,4.44,0,0,1,7.61,7.51,2.42,2.42,0,0,1,7.13,8a1.23,1.23,0,0,0-.34.26,1.63,1.63,0,0,0-.46.22,4.39,4.39,0,0,1-.58.18,5.82,5.82,0,0,1-3-.07A4.08,4.08,0,0,1,.7,6.78a3.86,3.86,0,0,1-.65-2C0,4.7,0,4.62,0,4.53A2.66,2.66,0,0,1,.07,3.79ZM.44,2.51s0,0,0,0ZM2.26,5.4c.61.2,1.67.11,2-.53A.13.13,0,0,0,4,4.79a1.68,1.68,0,0,1-1.8.27c-1-.5-.57-2.27.5-2.18a.89.89,0,0,1,.64,1.63.69.69,0,0,1-1.09-.3c-.1-.4.22-.85.64-.72.11,0,.26.13.23.25s-.57,0-.56.3c0,.48.9.21.87-.3a.64.64,0,0,0-.7-.56c-1.15,0-1,1.82.11,1.74A1.19,1.19,0,0,0,4.11,3.79c.07-1.1-1.44-1.54-2.23-1A1.48,1.48,0,0,0,2.26,5.4Zm.58,1.68c.49.13.81-.16,1.28-.22.24,0,.46.18.67.25A.69.69,0,0,0,5.39,7c.25-.13.71-.5.85,0,.1.24.49.28.51,0s-.83-.76-1.14-.51c-.64.35-.52.45-1.2,0a1.08,1.08,0,0,0-.71,0c-.2.1-.64.38-.82.13s-.1-.32-.3-.31a.29.29,0,0,0-.21.44A.72.72,0,0,0,2.84,7.08ZM7.61,4.14A1.65,1.65,0,0,0,5,2.82c-.24.06-.36.43,0,.43.16,0,.24-.18.36-.25C6.48,2.36,7.81,3.47,7,4.73a1.14,1.14,0,0,1-1.75,0,.87.87,0,0,1,.94-1.33A.59.59,0,0,1,6.63,4c.1.44-.52.82-.83.48a.17.17,0,0,1,0-.23.26.26,0,0,1,.23,0c.48,0,.28-.53-.11-.42a.56.56,0,0,0,.21,1.11.87.87,0,0,0,.64-1.41,1.16,1.16,0,0,0-1.91.46C4.31,5.77,7.47,6.07,7.61,4.14Z"/></g></g></svg>