<svg xmlns="http://www.w3.org/2000/svg" viewBox="0 0 193.61 272.44"><defs><style>.cls-1{fill:#0a0a0a;}.cls-2{fill:none;}</style></defs><g id="Camada_2" data-name="Camada 2"><g id="Layer_1" data-name="Layer 1"><path class="cls-1" d="M178.29,60.32a21.17,21.17,0,0,1-1.77,6.79A45,45,0,0,1,173,73l-1.77,1.77a26.17,26.17,0,0,0-2.95,2.66,12.67,12.67,0,0,1-2.07,1.77,10.22,10.22,0,0,1-3.54,2.07,15.06,15.06,0,0,1-5,.89h-4.14c-.89,0-1.48.29-2.36.29a14,14,0,0,1-5-.29c-1.18,0-1.77-.6-2.36-.6a6.88,6.88,0,0,1-2.37-.59A29,29,0,0,1,134,77.15l-2.66-2.06c-1.18-1.18-1.77-3.84-2.07-5.91a12.92,12.92,0,0,1,2.07-5.91,5.94,5.94,0,0,1,2.95-2.36,19.7,19.7,0,0,1,4.14,0,10.24,10.24,0,0,1,3.84.89c.59,0,.88.29,1.48.29l.88.89A16.09,16.09,0,0,1,147,64.75l1.78,2.07c1.47,1.18,2.65,2.66,4.43,3.25h2.65c1.19-.3,2.07-.3,3-.59a11.26,11.26,0,0,0,5-4.14c.59-.59.88-1.48,1.47-2.07a4.15,4.15,0,0,0,.89-3.24V58a17.15,17.15,0,0,0-.29-3.84,8.58,8.58,0,0,1-.89-2.95,11.52,11.52,0,0,1-.59-1.78c-.59-1.18-2.07-2.06-2.95-3.25l-.89-.59c-.59-.29-.89-1.18-1.48-1.47-.59-.59-1.18-.59-2.06-.89-.6,0-1.48-.59-2.07-.59a3.8,3.8,0,0,0-1.77-.29c-.6-.3-.89-.89-1.48-.89-.3-.3-.89-.3-1.48-.59h-5.61c-.88.29-1.48.29-2.36.59a30.3,30.3,0,0,1-4.73,1.77c-1.18.59-2.95.89-4.13,1.77l-3.54,1.78a28.24,28.24,0,0,0-3.25,2.36c-1.19.88-2.66,1.47-3.84,2.36a12.34,12.34,0,0,1-1.48,2.07,10.34,10.34,0,0,0-2.66,1.77l-4.13,3.54a10.23,10.23,0,0,0-2.66,2.37,50.55,50.55,0,0,0-4.43,3.84,21.73,21.73,0,0,1-3,2.65,14.62,14.62,0,0,0-2.37,2.07c-.88.59-1.77,1.77-3,2.36a9.33,9.33,0,0,1-2.66,2.37l-2.36,1.77c-.3.29-1.18.29-1.77.59L88.8,78.93A17.15,17.15,0,0,1,87,80.11a3.13,3.13,0,0,1-1.47.88,46.74,46.74,0,0,1-7.68,2.37,8.86,8.86,0,0,1-2.66.59,6.73,6.73,0,0,1-3.25.88c-1.77.3-3,.89-4.43.89s-2.66.29-4.13.29c-3.55,0-7.39-.88-10.64-.88a8.76,8.76,0,0,1-3.84-.59c-1.47-.59-3.24-.89-4.72-1.48l-.89-.59c-.29,0-.59-.29-.88-.29L41,81.58c-.89-.29-1.18-.59-2.07-.88-.59-.3-1.18-.3-1.77-.59-2.66-1.77-5-3.25-6.5-5.61C29.15,73,28.56,71,28,68.88a39.71,39.71,0,0,1-1.48-5.61c-.3-1.18-.3-2.36-.59-3.54,0-.59.29-.89.29-1.48.6-1.47.3-3,.3-4.72a17.41,17.41,0,0,1,1.18-6.79,10.25,10.25,0,0,1,2.36-3c.89-1.77,1.77-3.84,3.25-5a12.35,12.35,0,0,1,4.43-3.25,14.12,14.12,0,0,1,2.66-1.77c.89-.29,1.77-.89,2.66-1.18,2.07-.59,3.54-1.77,5.31-2.36a45.17,45.17,0,0,1,6.21-.3c1.77,0,3.84.3,5.9.3a12.33,12.33,0,0,1,4.43,1.18c.3.29.59.59.89.59.88.29,1.77.29,2.36.59A11.21,11.21,0,0,1,72,35.22c1.48,2.66,2.66,5.31,2.36,8.56a7,7,0,0,1-.59,2.66,5.11,5.11,0,0,1-1.18,1.48c-.59.88-2.07,1.47-3,2.36-2.37,1.18-6.2,2.07-8.57.59a20.39,20.39,0,0,0-2.65-2.07c-1.48-1.18-2.66-2.36-4.44-2.95C52.48,45,50.12,45,48.34,45c-1.18,0-2.06-.59-3.24,0a8.23,8.23,0,0,0-3.55,2.37,28.21,28.21,0,0,0-2.66,3.54c-.59,1.77-.29,3.54-.59,5a13.45,13.45,0,0,0,.3,5.91c0,.59.59,1.18.88,1.77.59,1.18.89,2.95,2.07,3.84a11.88,11.88,0,0,0,6.2,2.66c1.48.29,3,1.18,4.43,1.18h3c1.77,0,4.13-.3,5.9-.3.59,0,.89.3,1.48.3,2.66-.3,4.72-2.07,7.09-2.37L72,68a12.29,12.29,0,0,1,3-1.18,66.11,66.11,0,0,0,7.39-5A24.7,24.7,0,0,0,87,58.25c1.48-.88,2.07-2.06,3.25-3a15.11,15.11,0,0,1,3.25-2.36,19.9,19.9,0,0,0,3-2.37c1.48-1.47,2.66-3,4.73-3.83A17.45,17.45,0,0,0,103.57,45a38.33,38.33,0,0,1,5-4.13c1.18-.89,2.66-1.77,4.14-2.95s2.65-1.78,3.83-2.66L118.63,34A40.24,40.24,0,0,0,124,32l2.66-.89a10.19,10.19,0,0,0,2.06-.88c.59-.3,1.19-.89,1.78-.89a4.26,4.26,0,0,1,1.77-.59,12.57,12.57,0,0,1,3.54-.89,2.72,2.72,0,0,1,1.48-.29,4.36,4.36,0,0,0,2.07-.3h10.33a19.11,19.11,0,0,1,5.91,1.18l3.25.89a12.94,12.94,0,0,1,4.72,2.07,8.73,8.73,0,0,1,3.25,1.77,8,8,0,0,1,1.48,1.77,2.94,2.94,0,0,1,1.47,1.18,20.1,20.1,0,0,1,4.73,6.8A4.72,4.72,0,0,1,175.63,45l1.18,3a12.15,12.15,0,0,1,1.48,5.61A26.49,26.49,0,0,1,178.29,60.32ZM27.38,219.5a19,19,0,0,1,0-4.13,1.81,1.81,0,0,0,.29-1.18,12.3,12.3,0,0,1,.89-4.73l.29-.88A82.82,82.82,0,0,1,33,201.19l.59-.59a16.76,16.76,0,0,1,1.47-2.36l.3-.59A14.22,14.22,0,0,1,38.6,195c.29,0,.59-.29.88-.29s.3,0,.3-.3h.29c.6-.29.89-.59,1.48-.59a17.87,17.87,0,0,1,3.84-.3h.3a6.63,6.63,0,0,1,3.83,1.78c2.07,1.47,2.07,3.24,2.07,4.72a8.22,8.22,0,0,1-2.36,6.2,1.3,1.3,0,0,1-.3.89,5.45,5.45,0,0,1-1.77,2.07,4.14,4.14,0,0,0-1.18.88c-.59.59-.88.89-1.18.89-.3.29-.59.29-.59.59-.3.3-.89.3-.89.59l-.88.89a17.17,17.17,0,0,0-2.66,8.56v2.36c.29.89.59,1.48.89,2.37l.29.29a4.27,4.27,0,0,0,1.77,2.95l.59.6a3.59,3.59,0,0,1,.89.59l1.48.88a14.13,14.13,0,0,0,3.54.3H54c.3,0,.6-.3.89-.3.59,0,.89-.29,1.48-.29.29,0,.29,0,.88-.3s1.19-.29,2.07-.59a3.18,3.18,0,0,0,1.77-.89c.3,0,.59-.29.89-.29.29-.3.59-.59.89-.59l.88-.89c.3,0,.59-.59.59-.88.59-.3.59-.3.59-.59a8,8,0,0,1,1.48-1.78,15,15,0,0,1,2.07-2.36l.59-.88.59-2.07c0-.3.29-.89.29-1.18A22.54,22.54,0,0,0,72,207.1v-1.48c-.59-.29-.59-.29-.59-.59l-.89-2.66c-.29-.59-.59-1.47-.88-2.06a7.36,7.36,0,0,0-1.18-2.66v-.3a6.29,6.29,0,0,1-.89-1.47v-.59a.92.92,0,0,1-.3-.59l-.29-.3c0-.29-.3-.59-.59-.89l-.89-2.65c-.29-.89-1.18-1.78-1.77-3l-.29-.59a28.13,28.13,0,0,0-3.25-5.9l-.89-1.19c-1.48-2.06-3-3.54-3.84-5.31l-.59-1.48c-.29-.29-.59-.88-.89-1.18s-.29-1.18-.59-1.48a5.45,5.45,0,0,1-1.47-3,29.7,29.7,0,0,0-2.66-5.32c0-.29-.3-.59-.59-.88A12.22,12.22,0,0,0,47.16,159v-.89a15.32,15.32,0,0,1-.59-1.47c-1.77-2.36-2.07-5.32-2.66-8.27v-1.18A32.49,32.49,0,0,1,43,136.52c0-1.19.29-1.78.29-2.66a1.18,1.18,0,0,0,.59-1.18v-3.84c.3-1.78.89-3,1.19-4.43a10.67,10.67,0,0,0,.88-3.25,2.64,2.64,0,0,0,.3-1.48,58.8,58.8,0,0,1,1.77-5.61,18.32,18.32,0,0,0,1.18-2.36c2.07-3.55,3.54-7.09,6.2-9.75.59-.59,1.18-1.77,2.36-2.06.3,0,.6-.6,1.19-.6a10,10,0,0,1,5-1.47,5.32,5.32,0,0,1,4.43,2.07,3.46,3.46,0,0,1,1.47,1.47,1,1,0,0,1,.3.59l.59.89c0,.29.29.59.59.88a1.06,1.06,0,0,0,.59.89,5.67,5.67,0,0,1,.3,2.36,9,9,0,0,1-.3,2.66,6,6,0,0,1-1.77,2.07l-.59.88c-.3.3-.59.59-.89.59a23.83,23.83,0,0,1-1.48,2.07,12.67,12.67,0,0,1-1.77,2.07c-.29.29-.59.89-1.18,1.18a2.34,2.34,0,0,0-1.18,1.18,4.34,4.34,0,0,0-.89,1.18,16.35,16.35,0,0,0-1.47,2.37l-.89,2.06a2.54,2.54,0,0,0-.88,1.77,10.29,10.29,0,0,0-.89,3.84,5,5,0,0,0-.3,2.07v1.18a17,17,0,0,0,.3,8.57,2.61,2.61,0,0,1,.3,1.47,9,9,0,0,1,1.18,2.37c0,.29.29.59.59,1.18a4.73,4.73,0,0,1,.88,1.77c.3.3.3.89.59.89.3.88.3,1.47.89,2.06a1,1,0,0,1,.3.59l.88.89c0,.3.3.59.59.89,0,.29.59.59.59.88.89.89,1.18,2.36,1.77,3.25.3.3.3.89.59,1.18l.89,1.18c.3.59.3.89.59,1.18l.89,2.07c.29.59.88.89,1.18,1.48.29.29.29.88.59,1.18.59.3.89.89,1.18,1.18s.3.59.59.59c0,.3.3.59.59.89a4.15,4.15,0,0,0,.89,1.18c.88,1.77,2.07,3.54,3,5.61.3.3.3.59.59,1.18a9.77,9.77,0,0,1,1.77,3.55c.6,2.06,1.48,4.13,2.07,6.2a14.18,14.18,0,0,1,1.18,3.25,11,11,0,0,1,.59,1.77,14.9,14.9,0,0,1,.59,3.25v.88a1.74,1.74,0,0,0,.3,1.18v3a8.19,8.19,0,0,1,0,2.66v1.77a29.86,29.86,0,0,1-.3,5.31,15,15,0,0,0-1.18,3.84,22.74,22.74,0,0,1-1.47,5.32v.59a35.28,35.28,0,0,1-1.48,3.25c-.3.59-.3,1.47-.59,2.07a9.14,9.14,0,0,1-1.18,2.36,28.28,28.28,0,0,1-4.73,7.68,16,16,0,0,1-2.66,2.06l-.88.59c-.89.6-1.77,1.48-2.66,2.07l-.3.59a12.2,12.2,0,0,1-3.83,2.37l-.89.59c-1.77,1.18-3.25,1.18-5.32,1.18a1.29,1.29,0,0,0-1.47,0H49.82c-2.66-.3-5.32-1.48-8-2.37-2.37-.88-4.73-3.24-6.8-4.72l-.29-.3a9.58,9.58,0,0,1-3.25-4.43,1,1,0,0,0-.3-.59A8.9,8.9,0,0,1,30,229.84c0-.3-.88-1.18-1.18-1.48-.29-1.18-.29-1.77-.59-2.65a1.82,1.82,0,0,0-.29-1.19,5.63,5.63,0,0,1-.3-2.06v-.59a1.11,1.11,0,0,0-.29-.89Zm59.06-92.44v-1.77A17.26,17.26,0,0,1,87,120c.3-1.18.89-2.37,1.18-3.55.59-1.77.89-3.54,1.48-5.31l.3-.59a20.87,20.87,0,0,0,1.18-3.25l.88-2.07c.3-.59.3-1.48,1.18-2.07,1.19-3.24,2.66-6.2,4.73-8a6.94,6.94,0,0,1,2.66-2.36c.29,0,.59-.3.88-.59l2.66-2.07.3-.3A10.58,10.58,0,0,1,108,87.49h.3c0-.29.29-.29.59-.29A6,6,0,0,1,114.2,86h1.48a22.2,22.2,0,0,1,6.2,0c2.36,0,5,1.19,7.68,2.07s5,3,7.09,4.43l.29.3a12.68,12.68,0,0,1,3,4.43l.59.88a15.89,15.89,0,0,1,.88,3.25c.3.59.3,1.18.89,1.48a9.28,9.28,0,0,1,.59,2.36,1.81,1.81,0,0,1,.29,1.18,7.23,7.23,0,0,1,.3,2.36,1,1,0,0,0,.3.6v.88c0,.3.29.89.29,1.18a9.86,9.86,0,0,1-.29,4.14v1.18a24,24,0,0,1-.89,4.43l-.3,1.18c-1.47,2.36-2.36,5-4.13,8l-.3.3L136.35,133l-.29.3a9.9,9.9,0,0,1-3.25,2.65c-.3.6-.59.6-.89.6a.28.28,0,0,1-.29.29h-.3a6.29,6.29,0,0,1-1.47.89h-4.14c-1.18,0-2.36-.59-3.84-2.07a5.14,5.14,0,0,1-1.77-4.43c0-2.95.59-5,2.07-6.79l.59-.59a9.52,9.52,0,0,1,1.77-2.37,4,4,0,0,1,1.18-.88c.3-.59.59-.59,1.18-.89,0-.29.3-.29.59-.59l.89-.59.59-.59a12.38,12.38,0,0,0,2.66-8v-.59a3.34,3.34,0,0,0,0-2.37,9.38,9.38,0,0,0-.59-2.36l-.3-.3a5.21,5.21,0,0,0-1.77-2.65c-.3-.3-.59-.3-.59-.59-.59-.59-.89-.89-1.18-.89-.3-.29-.59-.89-1.48-.89a6.93,6.93,0,0,0-3.54-.59h-.89c-.59,0-1.18.3-1.77.3h-3.25a1.81,1.81,0,0,1-1.18.29c-.3,0-.59.6-.89.6-.59.29-1.18.29-1.77.59-.59,0-1.18.59-2.07,1.18-.29.29-.29.29-.59.29-.29.3-.88.59-.88.89-.3,0-.59.29-.89.59s-.59.59-.89.59c0,.29,0,.29-.59.59l-1.18,2.07a9.42,9.42,0,0,0-2.07,2.66l-.59.59a3.19,3.19,0,0,0-.59,1.77c-.29.29-.29.88-.59,1.18a32.67,32.67,0,0,0-2.06,10.93c0,.29.59.59.59,1.18v.59a10.49,10.49,0,0,0,1.18,2.66,9,9,0,0,0,.88,2.65l.89,2.37.29.29a2.26,2.26,0,0,1,.6,1.48.91.91,0,0,1,.29.59c0,.29,0,.89.3.89v.29c.29.3.59.59.59.89a17.7,17.7,0,0,1,1.18,2.36c.29.89.88,1.77,1.48,3.25l.59.59,3,5.32c.59.29.89,1.18,1.18,1.77a26.84,26.84,0,0,1,3.25,4.72,10,10,0,0,1,.88,1.77,2.67,2.67,0,0,1,.89,1.48,4,4,0,0,0,.89,1.18,9.12,9.12,0,0,1,1.47,3,16.19,16.19,0,0,0,2.37,5.61l.59.88a5.68,5.68,0,0,1,1.47,2.66c0,.3.3.59.3.89.29.29.29.88.59,1.18,1.77,2.07,2.07,5.61,2.36,8,0,.59.3.89.3,1.18a49.66,49.66,0,0,1,.88,11.23,3.35,3.35,0,0,1-.88,2.36c0,.59-.3.88-.3,1.18v1.48a6.19,6.19,0,0,1,0,2.36,16.63,16.63,0,0,1-1.18,4.13,22.18,22.18,0,0,1-.89,3.25,2.72,2.72,0,0,1-.29,1.48,16.83,16.83,0,0,1-1.77,5.91,10.63,10.63,0,0,1-1.18,2.65,1,1,0,0,0-.3.59c-1.77,3-2.95,5.91-5.32,8.57a44.81,44.81,0,0,1-3.83,3.25,5.5,5.5,0,0,1-3.55,1.47h-3.25a7.6,7.6,0,0,1-4.72-2.06,5.27,5.27,0,0,1-2.95-3.25,6.29,6.29,0,0,1-.3-3.25,4.32,4.32,0,0,1,.3-2.07c1.18-1.77,2.95-3.54,4.13-5.31a24.94,24.94,0,0,1,3.84-4.43,11.78,11.78,0,0,0,3.54-3l1.77-2.66c.6-1.18,1.48-2.36,1.48-3.54v-2.07c.3-1.18.3-2.65.59-3.84v-1.18c0-2.06.59-5.61-.59-8.56,0-.3-.29-.59-.29-1.18-.3-.89-.3-2.07-.59-2.66l-.89-1.48a6.29,6.29,0,0,1-.89-1.47c0-.3-.29-.59-.29-.89l-.89-2.36c-.29,0-.29-.3-.59-.3,0-.29-.29-.59-.59-.88-.29-.59-.59-.89-.59-1.19-.3-.29-.3-.59-.89-.88a7.71,7.71,0,0,1-1.47-2.66,3.12,3.12,0,0,1-.89-1.48l-.89-1.18c0-.29-.29-.59-.29-1.18a6.28,6.28,0,0,0-1.18-1.77,6.6,6.6,0,0,1-.89-1.48c-.29-.29-.59-1.18-.88-1.47-.59-.3-.89-.89-1.19-1.19,0-.29-.29-.29-.29-.59-.29-.29-.59-.59-.59-.88l-.89-1.18c-1.18-1.48-2.06-3.84-2.95-5.61-.3-.6-.59-.89-.59-1.19-.59-1.18-1.48-2.36-2.07-3.83a31.38,31.38,0,0,0-2.07-5.62,12.39,12.39,0,0,0-1.18-3.54c0-.59-.29-.89-.29-1.48A5.71,5.71,0,0,1,87,135v-.89a1.78,1.78,0,0,1-.29-1.18c0-.88-.3-1.77-.3-2.66Z"/><rect class="cls-2" width="193.61" height="272.44"/></g></g></svg>