<svg xmlns="http://www.w3.org/2000/svg" viewBox="0 0 266.88 266.5"><defs><style>.cls-1{fill:#0a0a0a;}.cls-2{fill:none;}</style></defs><g id="Camada_2" data-name="Camada 2"><g id="Layer_1" data-name="Layer 1"><path class="cls-1" d="M179.27,91.53a11.11,11.11,0,0,1-.92,3.55,23.57,23.57,0,0,1-1.86,3.08l-.92.93a14.42,14.42,0,0,0-1.55,1.39,6.1,6.1,0,0,1-1.08.93,5.38,5.38,0,0,1-1.85,1.08,8,8,0,0,1-2.62.46h-2.16c-.47,0-.78.15-1.24.15a7.27,7.27,0,0,1-2.62-.15c-.62,0-.93-.31-1.24-.31a3.48,3.48,0,0,1-1.23-.31,15.2,15.2,0,0,1-3.86-2l-1.39-1.08a6.11,6.11,0,0,1-1.08-3.08,6.75,6.75,0,0,1,1.08-3.09,3.09,3.09,0,0,1,1.54-1.23,9.81,9.81,0,0,1,2.17,0,5.29,5.29,0,0,1,2,.46c.31,0,.47.15.77.15l.47.47a8.74,8.74,0,0,1,1.23.92l.93,1.08a8.16,8.16,0,0,0,2.31,1.7h1.39c.62-.15,1.08-.15,1.54-.31a5.78,5.78,0,0,0,2.63-2.16c.31-.31.46-.77.77-1.08a2.18,2.18,0,0,0,.46-1.7V90.29a9,9,0,0,0-.15-2,4.47,4.47,0,0,1-.46-1.55,5.42,5.42,0,0,1-.31-.92c-.31-.62-1.08-1.08-1.55-1.7l-.46-.31c-.31-.15-.46-.62-.77-.77-.31-.31-.62-.31-1.08-.46-.31,0-.77-.31-1.08-.31a1.91,1.91,0,0,0-.93-.16c-.31-.15-.46-.46-.77-.46-.15-.16-.46-.16-.77-.31h-2.93c-.47.15-.77.15-1.24.31a16.56,16.56,0,0,1-2.47.93,12.84,12.84,0,0,0-2.16.92l-1.85.93a15.63,15.63,0,0,0-1.7,1.23c-.62.47-1.39.77-2,1.24a6.72,6.72,0,0,1-.78,1.08,5.55,5.55,0,0,0-1.39.92l-2.16,1.86A5.44,5.44,0,0,0,144.54,92a27.62,27.62,0,0,0-2.31,2,12.28,12.28,0,0,1-1.54,1.39,6.7,6.7,0,0,0-1.24,1.08,13,13,0,0,1-1.54,1.23,5,5,0,0,1-1.39,1.24l-1.24.92c-.15.16-.61.16-.92.31l-1.85,1.08a9.52,9.52,0,0,1-.93.62,1.64,1.64,0,0,1-.77.46,25.32,25.32,0,0,1-4,1.24,4.69,4.69,0,0,1-1.39.3,3.52,3.52,0,0,1-1.7.47,16,16,0,0,1-2.32.46c-.77,0-1.39.16-2.16.16-1.85,0-3.86-.47-5.55-.47a4.56,4.56,0,0,1-2-.31c-.77-.31-1.7-.46-2.47-.77l-.46-.31c-.16,0-.31-.15-.47-.15l-.77-.31c-.46-.15-.62-.31-1.08-.46s-.62-.16-.92-.31a10.72,10.72,0,0,1-3.4-2.93A6.58,6.58,0,0,1,100.71,96a19.48,19.48,0,0,1-.77-2.93c-.16-.62-.16-1.23-.31-1.85,0-.31.15-.46.15-.77A6.45,6.45,0,0,0,99.94,88a8.92,8.92,0,0,1,.62-3.55,5.39,5.39,0,0,1,1.23-1.55,7.76,7.76,0,0,1,1.7-2.62,6.61,6.61,0,0,1,2.31-1.7,7.25,7.25,0,0,1,1.39-.92c.47-.16.93-.47,1.39-.62,1.08-.31,1.86-.93,2.78-1.24a24.61,24.61,0,0,1,3.24-.15c.93,0,2,.15,3.09.15a6.42,6.42,0,0,1,2.31.62c.16.16.31.31.47.31a11.5,11.5,0,0,1,1.23.31,5.91,5.91,0,0,1,2,1.39,7.52,7.52,0,0,1,1.23,4.47,3.56,3.56,0,0,1-.31,1.39,2.6,2.6,0,0,1-.61.78c-.31.46-1.08.77-1.55,1.23-1.23.62-3.24,1.08-4.47.31a11.21,11.21,0,0,0-1.39-1.08A7.55,7.55,0,0,0,114.29,84a6.21,6.21,0,0,0-2.93-.46c-.62,0-1.08-.31-1.7,0a4.28,4.28,0,0,0-1.85,1.24,13.34,13.34,0,0,0-1.39,1.85,17.65,17.65,0,0,0-.31,2.62,7,7,0,0,0,.16,3.09c0,.31.31.62.46.93.31.61.46,1.54,1.08,2a6.12,6.12,0,0,0,3.24,1.39,12.46,12.46,0,0,0,2.32.62h1.54c.93,0,2.16-.16,3.09-.16.31,0,.46.16.77.16,1.39-.16,2.47-1.08,3.7-1.24l1.24-.46a6.62,6.62,0,0,1,1.54-.62,32.68,32.68,0,0,0,3.86-2.62,12.81,12.81,0,0,0,2.47-1.85c.77-.47,1.08-1.08,1.7-1.55a7.79,7.79,0,0,1,1.7-1.23,10.46,10.46,0,0,0,1.54-1.24,7.8,7.8,0,0,1,2.47-2,8.75,8.75,0,0,0,1.23-.93,19.61,19.61,0,0,1,2.63-2.16c.61-.46,1.39-.93,2.16-1.54s1.39-.93,2-1.39l1.08-.62a20.69,20.69,0,0,0,2.78-1.08l1.39-.46a5.87,5.87,0,0,0,1.08-.47c.31-.15.62-.46.93-.46a2.28,2.28,0,0,1,.92-.31,6.34,6.34,0,0,1,1.86-.46,1.42,1.42,0,0,1,.77-.15,2.22,2.22,0,0,0,1.08-.16h5.4a10,10,0,0,1,3.09.62l1.69.46a6.65,6.65,0,0,1,2.47,1.08,4.64,4.64,0,0,1,1.7.93,4.13,4.13,0,0,1,.77.92,1.61,1.61,0,0,1,.78.62,10.73,10.73,0,0,1,2.47,3.55,2.54,2.54,0,0,1,.61,1.08l.62,1.55a6.39,6.39,0,0,1,.77,2.93A13.13,13.13,0,0,1,179.27,91.53ZM100.4,174.72a10.4,10.4,0,0,1,0-2.16.92.92,0,0,0,.16-.62,6.36,6.36,0,0,1,.46-2.47l.15-.46c.78-1.39,1.39-2.78,2.16-3.86l.31-.31a8.23,8.23,0,0,1,.78-1.23l.15-.31a7.18,7.18,0,0,1,1.7-1.39c.15,0,.31-.16.46-.16s.15,0,.15-.15H107c.31-.16.46-.31.77-.31a9.77,9.77,0,0,1,2-.15H110a3.42,3.42,0,0,1,2,.92,2.6,2.6,0,0,1,1.08,2.47,4.27,4.27,0,0,1-1.24,3.24.71.71,0,0,1-.15.47,2.88,2.88,0,0,1-.93,1.08,2,2,0,0,0-.61.46c-.31.31-.47.46-.62.46-.16.16-.31.16-.31.31-.15.15-.46.15-.46.31l-.47.46a9.13,9.13,0,0,0-1.39,4.48V177c.16.47.31.77.47,1.24l.15.15a2.28,2.28,0,0,0,.93,1.55l.31.3a2,2,0,0,1,.46.31l.77.47a7.75,7.75,0,0,0,1.85.15h2.47c.16,0,.31-.15.47-.15s.46-.16.77-.16c.15,0,.15,0,.46-.15a8.19,8.19,0,0,1,1.08-.31A1.75,1.75,0,0,0,118,180c.15,0,.31-.16.46-.16.16-.15.31-.31.46-.31l.47-.46c.15,0,.31-.31.31-.46.3-.16.3-.16.3-.31a4.28,4.28,0,0,1,.78-.93,7,7,0,0,1,1.08-1.23l.3-.47.31-1.08c0-.15.16-.46.16-.61a11.91,11.91,0,0,0,1.08-5.71v-.78c-.31-.15-.31-.15-.31-.3l-.46-1.39c-.16-.31-.31-.78-.47-1.08a3.84,3.84,0,0,0-.61-1.39v-.16a3.23,3.23,0,0,1-.47-.77v-.31a.48.48,0,0,1-.15-.31l-.16-.15c0-.16-.15-.31-.3-.46l-.47-1.39a17.62,17.62,0,0,0-.92-1.55l-.16-.31a14.26,14.26,0,0,0-1.7-3.08l-.46-.62a23.76,23.76,0,0,1-2-2.78l-.31-.77c-.16-.15-.31-.46-.47-.62s-.15-.61-.3-.77a2.91,2.91,0,0,1-.78-1.54,15,15,0,0,0-1.39-2.78c0-.15-.15-.31-.3-.46a6.26,6.26,0,0,0-.78-1.39v-.47a6.71,6.71,0,0,1-.3-.77,10,10,0,0,1-1.39-4.32v-.62a16.85,16.85,0,0,1-.47-5.55c0-.62.16-.93.16-1.39a.62.62,0,0,0,.31-.62v-2c.15-.92.46-1.54.61-2.31a5.29,5.29,0,0,0,.47-1.7,1.42,1.42,0,0,0,.15-.77,29.36,29.36,0,0,1,.93-2.93,8.62,8.62,0,0,0,.61-1.24c1.08-1.85,1.86-3.7,3.25-5.09.3-.31.61-.93,1.23-1.08.15,0,.31-.31.62-.31a5.23,5.23,0,0,1,2.62-.77,2.79,2.79,0,0,1,2.32,1.08,1.86,1.86,0,0,1,.77.77.57.57,0,0,1,.15.31l.31.46c0,.16.15.31.31.47a.55.55,0,0,0,.31.46,3.08,3.08,0,0,1,.15,1.23,4.88,4.88,0,0,1-.15,1.39,3.15,3.15,0,0,1-.93,1.08l-.31.47c-.15.15-.31.3-.46.3-.15.31-.46.62-.77,1.09a6.91,6.91,0,0,1-.93,1.08c-.15.15-.31.46-.61.61a1.21,1.21,0,0,0-.62.62,1.91,1.91,0,0,0-.46.62,8.78,8.78,0,0,0-.78,1.23l-.46,1.08a1.33,1.33,0,0,0-.46.93,5.32,5.32,0,0,0-.47,2,2.74,2.74,0,0,0-.15,1.09v.61a8.94,8.94,0,0,0,.15,4.48,1.34,1.34,0,0,1,.16.77,4.64,4.64,0,0,1,.62,1.24c0,.15.15.3.3.61a2.6,2.6,0,0,1,.47.93c.15.15.15.46.31.46.15.46.15.77.46,1.08a.57.57,0,0,1,.15.31l.47.46c0,.16.15.31.31.47,0,.15.3.31.3.46.47.46.62,1.23.93,1.7.15.15.15.46.31.62l.46.61c.16.31.16.47.31.62l.46,1.08c.16.31.47.46.62.77.15.16.15.46.31.62s.46.46.62.62.15.31.31.31c0,.15.15.3.3.46a2.21,2.21,0,0,0,.47.62c.46.92,1.08,1.85,1.54,2.93.16.15.16.31.31.62a5.28,5.28,0,0,1,.93,1.85c.3,1.08.77,2.16,1.08,3.24a7.72,7.72,0,0,1,.61,1.7,5.42,5.42,0,0,1,.31.92,7.71,7.71,0,0,1,.31,1.7v.46a.9.9,0,0,0,.16.62V165a4.32,4.32,0,0,1,0,1.39v.93a15.36,15.36,0,0,1-.16,2.78,7.69,7.69,0,0,0-.62,2,11.7,11.7,0,0,1-.77,2.78v.31a17.54,17.54,0,0,1-.77,1.7c-.15.31-.15.77-.31,1.08a4.45,4.45,0,0,1-.62,1.23,14.38,14.38,0,0,1-2.47,4,8.3,8.3,0,0,1-1.39,1.08l-.46.31c-.46.31-.92.77-1.39,1.08l-.15.31a6.42,6.42,0,0,1-2,1.23l-.46.31a4.36,4.36,0,0,1-2.78.62.67.67,0,0,0-.77,0h-3.09a21.68,21.68,0,0,1-4.16-1.24,18.09,18.09,0,0,1-3.55-2.47l-.16-.15a5.08,5.08,0,0,1-1.7-2.32.57.57,0,0,0-.15-.31,4.65,4.65,0,0,1-.62-1.54c0-.15-.46-.62-.62-.77-.15-.62-.15-.93-.3-1.39a.91.91,0,0,0-.16-.62,3.08,3.08,0,0,1-.15-1.08V176a.55.55,0,0,0-.16-.46Zm30.87-48.31v-.93a9,9,0,0,1,.31-2.78c.15-.61.46-1.23.62-1.85.31-.92.46-1.85.77-2.78l.15-.3a9.62,9.62,0,0,0,.62-1.7l.46-1.08c.16-.31.16-.77.62-1.08a10,10,0,0,1,2.47-4.17,3.58,3.58,0,0,1,1.39-1.23c.15,0,.31-.16.46-.31l1.39-1.08.16-.16a5.58,5.58,0,0,1,1.85-1.23h.15c0-.16.16-.16.31-.16a3.14,3.14,0,0,1,2.78-.61h.77a11,11,0,0,1,3.24,0,14,14,0,0,1,4,1.08,15.11,15.11,0,0,1,3.7,2.31l.15.16a6.57,6.57,0,0,1,1.55,2.31l.31.46A8.32,8.32,0,0,1,160,113c.15.31.15.62.46.77a4.64,4.64,0,0,1,.31,1.24.88.88,0,0,1,.16.61,4,4,0,0,1,.15,1.24.57.57,0,0,0,.15.31v.46c0,.16.16.46.16.62a5.12,5.12,0,0,1-.16,2.16V121a11.81,11.81,0,0,1-.46,2.31l-.15.62c-.77,1.23-1.24,2.62-2.16,4.17l-.16.15-.92,1.24-.16.15a5.19,5.19,0,0,1-1.7,1.39c-.15.31-.31.31-.46.31a.15.15,0,0,1-.15.15h-.16a2.94,2.94,0,0,1-.77.46H151.8a2.86,2.86,0,0,1-2-1.08,2.68,2.68,0,0,1-.92-2.31A5.12,5.12,0,0,1,150,125l.31-.31a4.89,4.89,0,0,1,.92-1.23,2.21,2.21,0,0,1,.62-.47c.15-.31.31-.31.62-.46,0-.15.15-.15.3-.31l.47-.31.31-.31a6.48,6.48,0,0,0,1.39-4.16v-.31a1.76,1.76,0,0,0,0-1.24,4.89,4.89,0,0,0-.31-1.23l-.16-.16a2.75,2.75,0,0,0-.92-1.38c-.16-.16-.31-.16-.31-.31-.31-.31-.47-.47-.62-.47a1,1,0,0,0-.77-.46,3.61,3.61,0,0,0-1.85-.31h-.47c-.31,0-.61.16-.92.16h-1.7a.94.94,0,0,1-.62.15c-.15,0-.31.31-.46.31-.31.15-.62.15-.93.31-.31,0-.61.31-1.08.62-.15.15-.15.15-.31.15s-.46.31-.46.46c-.15,0-.31.16-.46.31s-.31.31-.46.31,0,.15-.31.31l-.62,1.08a5,5,0,0,0-1.08,1.39l-.31.31a1.65,1.65,0,0,0-.31.92c-.15.16-.15.47-.31.62a17.25,17.25,0,0,0-1.08,5.71c0,.16.31.31.31.62v.31A5.83,5.83,0,0,0,139,127a4.53,4.53,0,0,0,.46,1.38l.46,1.24.16.15a1.24,1.24,0,0,1,.31.78.46.46,0,0,1,.15.3c0,.16,0,.47.16.47v.15c.15.16.3.31.3.46a8.85,8.85,0,0,1,.62,1.24c.16.46.47.93.77,1.7l.31.31,1.55,2.77c.3.16.46.62.61.93a13.51,13.51,0,0,1,1.7,2.47,4.46,4.46,0,0,1,.46.93,1.38,1.38,0,0,1,.47.77,2.21,2.21,0,0,0,.46.62,4.64,4.64,0,0,1,.77,1.54,8.37,8.37,0,0,0,1.24,2.93l.31.46A3.17,3.17,0,0,1,151,150c0,.16.15.31.15.47.16.15.16.46.31.61.93,1.08,1.08,2.94,1.23,4.17,0,.31.16.46.16.62a25.89,25.89,0,0,1,.46,5.86,1.75,1.75,0,0,1-.46,1.24c0,.31-.16.46-.16.62v.77a3.16,3.16,0,0,1,0,1.23,8.53,8.53,0,0,1-.61,2.16,12.37,12.37,0,0,1-.47,1.7,1.42,1.42,0,0,1-.15.77,8.57,8.57,0,0,1-.93,3.09,5.41,5.41,0,0,1-.61,1.39.52.52,0,0,0-.16.31A26.38,26.38,0,0,1,147,179.5a22.16,22.16,0,0,1-2,1.7,2.89,2.89,0,0,1-1.85.77h-1.7a4,4,0,0,1-2.47-1.08,2.69,2.69,0,0,1-1.54-1.7,3.3,3.3,0,0,1-.16-1.69,2.18,2.18,0,0,1,.16-1.08c.61-.93,1.54-1.86,2.16-2.78a13.33,13.33,0,0,1,2-2.32,6.06,6.06,0,0,0,1.85-1.54l.93-1.39a4.72,4.72,0,0,0,.77-1.85v-1.08c.16-.62.16-1.39.31-2v-.62c0-1.08.31-2.93-.31-4.47,0-.16-.15-.31-.15-.62-.16-.46-.16-1.08-.31-1.39l-.46-.77a3.23,3.23,0,0,1-.47-.77c0-.16-.15-.31-.15-.47l-.46-1.23c-.16,0-.16-.15-.31-.15,0-.16-.16-.31-.31-.47-.16-.31-.31-.46-.31-.61s-.15-.31-.46-.47A4.09,4.09,0,0,1,141,150a1.72,1.72,0,0,1-.46-.77l-.46-.62c0-.15-.16-.3-.16-.61a3.1,3.1,0,0,0-.61-.93,3.23,3.23,0,0,1-.47-.77c-.15-.16-.3-.62-.46-.77-.31-.16-.46-.47-.62-.62,0-.15-.15-.15-.15-.31-.15-.15-.31-.31-.31-.46l-.46-.62a18.1,18.1,0,0,1-1.55-2.93c-.15-.31-.3-.46-.3-.62a20.5,20.5,0,0,1-1.08-2,16.14,16.14,0,0,0-1.09-2.93,6.39,6.39,0,0,0-.61-1.85c0-.31-.16-.46-.16-.77a3,3,0,0,1-.46-1.85v-.47a.93.93,0,0,1-.15-.61c0-.47-.16-.93-.16-1.39Z"/><path class="cls-1" d="M225.22,182.92a28.58,28.58,0,0,0-1.88,2.89c-.22.42-.44.83-.7,1.23a14.26,14.26,0,0,1-.83,1.44l-.47.32a.39.39,0,0,0-.11.37c-.13.16-.28.26-.41.42a9.94,9.94,0,0,0-.65,1.16c-.25.45-.65.92-.95,1.4-.39.65-1,1.08-1.44,1.73-.13.2-.18.44-.32.65a3,3,0,0,1-.52.55c-.3.26-.69.42-.87.8-.24.53,0,1.18,0,1.74a5.68,5.68,0,0,1-.62,2,17.9,17.9,0,0,0-1.26,4.15c-.29,1.38-.56,2.76-.85,4.14-.14.65-.33,1.3-.42,1.95a7.79,7.79,0,0,0,.38,2.41c.2,1.2-.35,2.56,0,3.8.09.33.66,1.32.26,1.72-.23.23-1.27-.06-1.59-.13-1.45-.32-2.85-.88-4.29-1.19-.68-.14-1.42-.29-2.08-.48-.94-.25-1-.72-.8-1.57.12-.63.29-1.33.37-2a3.45,3.45,0,0,1,.25-1.18,4.1,4.1,0,0,0,.16-1.34c.06-1.09.82-2,1.06-3.07.17-.75,0-1.51.22-2.25a1.63,1.63,0,0,1,.13-.39c.08,0,.09.11.07.19-.05-.59.53-1.22.74-1.76s.38-1.19.53-1.76c.09-.37.39-1,.24-1.33a3.71,3.71,0,0,0-.6-.77c-.16-.2-.38-.66-.59-.78s-.45.19-.73.35-.55.07-.88.11-.55.13-.84.17-.78.17-1.17.24a20,20,0,0,1-3.79.15c-1.4,0-2.84.43-4.22.56a21.38,21.38,0,0,1-3,.37c-.58,0-1.16,0-1.73.07s-1,.16-1.47.22c-.24,0-.53,0-.77,0s-.54.2-.8.09c-.56-.24-.58-1.24-.64-1.72s-.15-1.14-.27-1.69-.37-1.22-.46-1.84a11.21,11.21,0,0,0-.15-1.94c-.12-.33-.24-.57-.34-.9s-.11-.77-.29-.92a5,5,0,0,1,.81.25,10.06,10.06,0,0,0,1.3.28c.51,0,1,.09,1.47.15a8,8,0,0,0,1.38,0c.7,0,1.41-.29,2.1-.37s1.57-.15,2.37-.18,1.53-.1,2.32-.15a19,19,0,0,0,2.72-.28,10.62,10.62,0,0,1,2.55-.33,13.71,13.71,0,0,0,2.22,0,11,11,0,0,0,2.15-.26,4.36,4.36,0,0,0,1.48-.77,1.58,1.58,0,0,0,.55-.6c0-.11,0-.24,0-.34a4,4,0,0,1,.49-.61c1.43-1.76,2.64-3.69,4.15-5.38a21.36,21.36,0,0,0,3.47-5.51,123.56,123.56,0,0,1,6.27-11.57c.78-1.25.45-2.77,1.15-4A33.75,33.75,0,0,0,227,157.4a52.84,52.84,0,0,0,1.59-5.1c.66-2.42.61-4.91,1.21-7.33,1.58-6.31,1.23-12.8,1.13-19.25a48.72,48.72,0,0,0-1.41-9.91c-.78-3.46-1.72-6.57-1.57-10.09.13-3.11-2.22-5.87-3.09-8.78a88.82,88.82,0,0,0-3.64-9.74,28.09,28.09,0,0,0-4.66-7,19.84,19.84,0,0,1-2.81-4.73c-.64-1.36-.84-3.13-1.62-4.44-1.26-2.12-3.74-3.6-5.64-5.06-2.28-1.76-4.15-4.3-6.26-6.25-1.19-1.12-1.93-2.52-3.28-3.49-1.89-1.37-3.19-2.16-4.34-4.31a14.68,14.68,0,0,0-7.24-6c-1.1-.4-2.28-.51-3.39-.89a17.49,17.49,0,0,1-2.49-1.14,44.93,44.93,0,0,0-13.16-4.75c-2.9-.47-5.62-1.94-8.5-2.23a63.85,63.85,0,0,1-7.13-1.31c-1.44-.32-2.88-.12-4.32-.4a24.34,24.34,0,0,0-3.78-.86,33.54,33.54,0,0,1-4,0,22.34,22.34,0,0,0-4.12-.64,55,55,0,0,0-9,1.1c-2.45.48-5,.46-7.52.72a58.18,58.18,0,0,0-15.85,4.14l-9.85,4a92.44,92.44,0,0,0-8.37,4.07,63.64,63.64,0,0,0-6.78,3.91A17.59,17.59,0,0,0,74.23,55,69.6,69.6,0,0,1,67,62.45c-1.46,1.31-3,2.36-4.41,3.8-1.56,1.63-2.6,3.6-4.2,5.19-2.8,2.79-4.77,6.42-6.85,9.76-.54.88-1.32,1.61-1.9,2.46a24.5,24.5,0,0,0-1.7,4A133.48,133.48,0,0,0,41.8,105.5c-.59,2.08-1,4.17-1.59,6.26-.43,1.63-1.27,3.18-1.58,4.84-.22,1.22,0,2.41-.27,3.65a9.55,9.55,0,0,0-.25,3c.16,2.26.65,4.87.33,7.11a24.36,24.36,0,0,0,.07,5.72,16.8,16.8,0,0,1,.2,4.36,13.86,13.86,0,0,0-.31,1.93c-.2,6.92,2.24,13,6.35,18.34,2.27,2.95,3.64,6.56,5.31,9.86,1.87,3.69,3.79,7.37,5.73,11a26.46,26.46,0,0,0,4.38,6.49C62,189.85,63.26,192,65,193.73a44.38,44.38,0,0,0,4.78,4.42c2.62,1.91,5.37,3.54,8,5.38,2.9,2,5,4.89,8,6.88a46.52,46.52,0,0,0,7.14,4.05,6.42,6.42,0,0,1,1.17.59,8.09,8.09,0,0,0,1.6,1c.63.26,1.31.42,2,.66,2,.74,3.52,3.16,5.65,3.15a5.23,5.23,0,0,1,2.28.36,20.93,20.93,0,0,0,3,1.12,13.25,13.25,0,0,0,2.88.19,11.23,11.23,0,0,1,3.39.59c1,.35,2,.91,3.06,1.27.82.29,1.72.35,2.54.66a55.49,55.49,0,0,0,5.91,1.48c2.18.57,4.24-.16,6.41,0,.61,0,1.12.17,1.74.18.47,0,.9,0,1.35,0a3.13,3.13,0,0,1,1.22.14c.24.1.41.3.66.37s.47-.09.75-.06.57.15.9.16a10.58,10.58,0,0,0,1.37-.13c1-.09,1.94-.29,2.94-.36a6.18,6.18,0,0,1,1.36.09,4.21,4.21,0,0,0,1.46-.1c.91-.13,1.81-.15,2.72-.33a17.12,17.12,0,0,1,1.84-.37,15.29,15.29,0,0,0,2.22-.44c.63-.14,1.14-.21,1.77-.4s1.3-.55,2-.81a12.85,12.85,0,0,1,2.24-.43,22.81,22.81,0,0,0,2.5-.82,14,14,0,0,1,2.73-.54,14.94,14.94,0,0,0,2.43-.62,11.58,11.58,0,0,0,1.9-.67,10.36,10.36,0,0,1,1.56-.91c.54-.17,1.14-.28,1.7-.5s1.07-.84,1.69-1.16a2.71,2.71,0,0,1,.85-.27c.47.15.24.53.38.8.32.62.75,1.21,1,1.85s.58,1.48.9,2.2a6.59,6.59,0,0,0,.66,1.23,3.41,3.41,0,0,1,.51.64c.07.18-.08.23-.06.42s.18.26.23.4c.26.64-.43.59-.84.74s-.94.45-1.48.65-1,.39-1.41.54c-.2.06-.39.19-.6.26s-.65.11-.95.22c-.51.18-1,.47-1.5.67s-1.11.38-1.65.62a9,9,0,0,1-1.61.54,6.86,6.86,0,0,1-.73.16,9.1,9.1,0,0,0-.93.11c-.14,0-.19.14-.31.2s-.27.08-.39.14a2.1,2.1,0,0,1-.83.24,6,6,0,0,0-1.79.57,10.75,10.75,0,0,1-1.7.62c-.56.16-1.12.39-1.69.5-1.3.24-2.54.88-3.87,1a22,22,0,0,0-2.25.49c-.35.07-.67,0-1,.1s-.61.13-.94.19a5.88,5.88,0,0,1-.95.14c-.45,0-.82.16-1.26.21a7.06,7.06,0,0,1-1.38.06,8.43,8.43,0,0,0-1.42,0c-.41,0-.7.38-1.09.45-.22,0-.43-.16-.58-.13-1,.16-2.07.15-3.11.29a21,21,0,0,1-2.84.39c-.48,0-.81-.12-1.27-.16a4.9,4.9,0,0,0-1.35.31,4.52,4.52,0,0,1-1.79-.09c-.86-.16-1.72-.25-2.59-.35-2.69-.31-5.37-.82-8.06-1.2-5.63-.79-11.27-1.51-16.85-2.6-8.23-1.61-17-4-23.34-9.83a68.36,68.36,0,0,0-7.84-6.67c-1.28-.86-2.73-1.39-3.94-2.36s-2.58-2.19-4-3.17a32.93,32.93,0,0,1-4.61-3.24c-1.44-1.37-2.78-2.86-4.18-4.28s-2.48-2.7-3.78-4-2.64-2.07-3.72-3.37c-1.22-1.45-2.24-3-3.48-4.48-1.47-1.71-2.88-3-3.78-5-1.14-2.62-3.42-4.59-4.18-7.34-.7-2.51-2.51-4.42-3.86-6.59A23.13,23.13,0,0,1,35,167.07a19.76,19.76,0,0,1-1.28-3.3,30.23,30.23,0,0,0-.89-4.33,38.93,38.93,0,0,1-1.61-5.92c-.45-2.12-.65-4.29-1.13-6.4-.39-1.78-1-3.5-1.49-5.26a40.24,40.24,0,0,1-.76-5.2c-.28-2-1.08-3.89-1.25-5.93-.19-2.2.08-4.42-.05-6.62a33,33,0,0,1-.08-4.56c.47-6.27,3.19-11.9,4.75-17.92A129.79,129.79,0,0,1,37,84.14a26.13,26.13,0,0,1,4.47-6.89c2.14-2.51,3.88-5.22,6-7.75,2.9-3.46,5.69-7,8.75-10.31,1.56-1.71,3.05-3.43,4.55-5.18a40.89,40.89,0,0,0,3.43-3.78,17.32,17.32,0,0,1,2.94-4c1.64-1.46,3.5-2.65,5.14-4.12A29.24,29.24,0,0,1,78,37.74a40.17,40.17,0,0,1,6.83-3.22A15.16,15.16,0,0,1,87,34.15a19,19,0,0,0,4.48-1.8,27.27,27.27,0,0,1,5.94-2.14c2.46-.49,5-1.94,7.3-2.92a10.26,10.26,0,0,1,3.23-.83c1.41-.15,2.56-.84,3.91-1.05,1.85-.28,3.77,0,5.63-.1,2.4-.17,4.73-.48,7.12-.62a134,134,0,0,1,17.81-.34A92.48,92.48,0,0,1,156.88,27a58.11,58.11,0,0,1,7,2.18,65.88,65.88,0,0,1,7.17,2.75,41.76,41.76,0,0,0,7.58,2.65,35.91,35.91,0,0,1,4,1.22c1.76.74,3.43,1.8,5.15,2.63,2.67,1.3,5.52,2,7.73,4.14s4.42,3.89,6.66,5.78c5,4.22,10.63,7.88,14.88,12.88,2.13,2.5,4.05,5.15,6.18,7.65a34.83,34.83,0,0,1,4.55,7.71c.66,1.38,1.58,2.54,2.15,4,.47,1.19.9,2.41,1.48,3.54a24.45,24.45,0,0,1,2.07,4c.25.84.35,1.71.63,2.54.64,1.86,1.45,3.65,2.2,5.46a21.43,21.43,0,0,1,1.53,3.91c.29,1.48-.22,2.92.09,4.46a21.18,21.18,0,0,1,.33,4c0,1.62.84,3.13.77,4.74-.13,3,.92,5.81.85,8.84a40.15,40.15,0,0,0,.49,5.57c.22,1.94.19,3.95.23,5.9,0,1.69,0,3.41-.12,5.1s-.63,3.53-.7,5.36a75,75,0,0,1-1,8.59c-.44,2.82-2,5.41-3.28,7.89-.64,1.21-1,2.54-1.6,3.77a17.23,17.23,0,0,0-1.28,2.8c-.56,2.08-1.4,4-2.06,6.07a15.78,15.78,0,0,1-.92,3.26c-.65,1.12-1.26,2.22-1.88,3.37S226,181.75,225.22,182.92Z"/><rect class="cls-2" width="266.88" height="266.5"/></g></g></svg>