<svg xmlns="http://www.w3.org/2000/svg" viewBox="0 0 266.28 266.5"><defs><style>.cls-1{fill:#0a0a0a;}.cls-2{fill:none;}</style></defs><g id="Camada_2" data-name="Camada 2"><g id="Layer_1" data-name="Layer 1"><path class="cls-1" d="M239.78,130.69a72.22,72.22,0,0,0-1-8.53c-.35-1.79-.21-3.57-.56-5.35s-.63-3.33-1.06-5c-.49-1.88-.93-3.83-1.6-5.65a39.21,39.21,0,0,1-1.75-5.27c-.64-3-2.31-5.43-2.87-8.34-.31-1.58-1.44-2.86-1.85-4.41a20.17,20.17,0,0,0-1.25-3.83c-.66-1.41-.5-2.92-1.12-4.3a22,22,0,0,0-2.38-3.42c-1.15-1.57-2.34-3.12-3.39-4.76-.47-.74-.76-1.57-1.2-2.32a25.06,25.06,0,0,0-2.94-3.42,37.93,37.93,0,0,1-2.25-3.08c-.88-1.25-2-2.16-3-3.33a34.74,34.74,0,0,0-6.18-6.41c-2.64-1.93-5.11-4-7.75-6-5.26-3.85-11.53-6.09-17.36-9-2.6-1.31-5.26-2.59-7.78-4s-5.54-1.58-8.42-2.21c-1.86-.41-3.73-1-5.6-1.35a34.18,34.18,0,0,0-4.17-.24,43,43,0,0,1-7.94-.81,61.47,61.47,0,0,0-7.57-1,57.33,57.33,0,0,0-7.29-.48,91.39,91.39,0,0,0-14.6.8,133,133,0,0,0-17.13,4.46c-2.28.69-4.47,1.52-6.74,2.25-1.77.56-3.7.7-5.42,1.4-1.26.51-2.21,1.45-3.54,1.91A10.2,10.2,0,0,0,81.1,40.6c-2,1.48-4.12,3.47-6.37,4.51a26.67,26.67,0,0,0-5.25,3.44,18.73,18.73,0,0,1-3.92,2.78,14.69,14.69,0,0,0-2,.85,39.45,39.45,0,0,0-5.86,4.7,28.64,28.64,0,0,0-4.55,5.5c-1.25,1.8-2.78,3.38-4,5.17a17.29,17.29,0,0,0-1.91,4.6,39.82,39.82,0,0,1-2.43,4.44c-1,2-2.09,4.06-3.2,6.07-2.18,3.94-4.07,8-6.07,12-1.46,2.93-2.52,6-4,8.88a25.7,25.7,0,0,0-2.73,7.69,128.28,128.28,0,0,0-1.55,18.25c-.12,6.18-1.44,12.26-.45,18.42A34.5,34.5,0,0,0,28,152.28c.64,2.1.89,4.31,1.58,6.39s1.85,3.54,2.58,5.44A41.9,41.9,0,0,0,34.07,169c.85,1.6,1.87,3.11,2.66,4.74,1,1.93,1.65,4,2.57,5.93A40.21,40.21,0,0,0,42.23,185a28.1,28.1,0,0,1,1.86,4,20,20,0,0,0,2,2.9A23.42,23.42,0,0,0,48.41,195c1.81,1.77,4,3.2,5.26,5.47,1.37,2.48,4,3.86,5.74,6.12,1.34,1.77,3,2.67,4.82,4,1.53,1.1,2.89,2.41,4.4,3.53,1.35,1,3,1.52,4.38,2.39s3,2,4.58,3,3.32,2.18,5,3.18a33.12,33.12,0,0,0,5.22,2.06c1.61.61,3.06,1.4,4.61,2.13,1.39.66,2.92.83,4.36,1.37a67.31,67.31,0,0,1,9.12,4.63c7.47,4.2,16.51,4.45,24.84,4.1,9.25-.39,18.46-1.78,27.72-2.23,6.85-.33,12.89-3.05,19.12-5.55a30.29,30.29,0,0,0,4.84-2.88c2.11-1.34,4.46-2.16,6.65-3.33a44.41,44.41,0,0,0,6.16-4.3,10.69,10.69,0,0,0,1.91-1.89,9.1,9.1,0,0,1,1-1c2.35-2.12,4.74-4.14,6.9-6.47,1.35-1.45,2.48-3.06,3.87-4.49,2.52-2.58,5.11-5.19,7.41-8a55.49,55.49,0,0,0,4.16-4.77,33.35,33.35,0,0,0,2.16-3.58c1.17-2.34,2-4.8,3.1-7.18.59-1.32,1.21-2.61,1.7-4,.43-1.14.52-2.32,1-3.46a56.52,56.52,0,0,1,3.42-7.1,19.71,19.71,0,0,0,1.72-3.59c.49-1.31,1.43-2.26,1.79-3.63s.68-2.46,1-3.69a15.71,15.71,0,0,0,.14-3.36c.16-2.16.53-4.21.58-6.35a16.44,16.44,0,0,1,.6-3c.27-1.33.33-2.7.67-4C239.13,136.38,240,133.52,239.78,130.69Zm-109.6,36.63v.92A16.25,16.25,0,0,1,130,171a7.89,7.89,0,0,0-.62,2,11.7,11.7,0,0,1-.77,2.78v.31a18.44,18.44,0,0,1-.77,1.69c-.16.31-.16.78-.31,1.09a4.45,4.45,0,0,1-.62,1.23,14.47,14.47,0,0,1-2.47,4,7.81,7.81,0,0,1-1.39,1.08l-.46.31c-.46.31-.92.77-1.39,1.08l-.15.31a6.43,6.43,0,0,1-2,1.24l-.46.3a4.36,4.36,0,0,1-2.78.62.7.7,0,0,0-.77,0H112a21.24,21.24,0,0,1-4.17-1.23,18.84,18.84,0,0,1-3.55-2.47l-.15-.16a5.05,5.05,0,0,1-1.7-2.31.53.53,0,0,0-.15-.31,4.53,4.53,0,0,1-.62-1.54c0-.16-.46-.62-.62-.78-.15-.61-.15-.92-.31-1.38a.94.94,0,0,0-.15-.62,3.11,3.11,0,0,1-.15-1.08v-.31a.54.54,0,0,0-.16-.46v-.78a10.4,10.4,0,0,1,0-2.16.88.88,0,0,0,.16-.61,6.36,6.36,0,0,1,.46-2.47l.15-.47a43,43,0,0,1,2.16-3.86l.31-.3a9.32,9.32,0,0,1,.77-1.24l.16-.31a7.43,7.43,0,0,1,1.7-1.39c.15,0,.31-.15.46-.15s.15,0,.15-.16h.16c.31-.15.46-.3.77-.3a9.18,9.18,0,0,1,2-.16h.15a3.49,3.49,0,0,1,2,.93,2.6,2.6,0,0,1,1.08,2.47,4.29,4.29,0,0,1-1.24,3.24.67.67,0,0,1-.15.46,2.89,2.89,0,0,1-.93,1.08,2.18,2.18,0,0,0-.61.46c-.31.31-.47.47-.62.47-.16.15-.31.15-.31.31-.16.15-.46.15-.46.3l-.47.47a9.09,9.09,0,0,0-1.39,4.47V178c.16.46.31.77.47,1.23l.15.16a2.22,2.22,0,0,0,.93,1.54l.31.31a1.9,1.9,0,0,1,.46.31l.77.46a7.28,7.28,0,0,0,1.85.16h2.47c.16,0,.31-.16.47-.16s.46-.15.77-.15c.15,0,.15,0,.46-.16s.62-.15,1.08-.31a1.7,1.7,0,0,0,.93-.46c.15,0,.31-.15.46-.15.15-.16.31-.31.46-.31l.47-.46c.15,0,.3-.31.3-.47.31-.15.31-.15.31-.31a4.75,4.75,0,0,1,.77-.92A7.57,7.57,0,0,1,121.7,177l.3-.46.31-1.08c0-.16.16-.46.16-.62a11.88,11.88,0,0,0,1.08-5.71v-.77c-.31-.16-.31-.16-.31-.31l-.46-1.39c-.16-.31-.31-.77-.47-1.08a3.92,3.92,0,0,0-.61-1.39v-.15a3.7,3.7,0,0,1-.47-.77V163a.5.5,0,0,1-.15-.31l-.16-.16c0-.15-.15-.3-.31-.46l-.46-1.39c-.15-.46-.62-.92-.92-1.54l-.16-.31a14.59,14.59,0,0,0-1.7-3.09l-.46-.61a26.17,26.17,0,0,1-2-2.78l-.3-.77c-.16-.16-.31-.47-.47-.62s-.15-.62-.31-.77a2.91,2.91,0,0,1-.77-1.55,15.69,15.69,0,0,0-1.39-2.78c0-.15-.15-.3-.31-.46a6.24,6.24,0,0,0-.77-1.39v-.46c-.15-.31-.31-.77-.31-.77a10.33,10.33,0,0,1-1.39-4.32v-.62a17.16,17.16,0,0,1-.46-5.56c0-.61.16-.92.16-1.39a.61.61,0,0,0,.3-.61v-2c.16-.93.47-1.54.62-2.32a5.3,5.3,0,0,0,.47-1.69,1.44,1.44,0,0,0,.15-.77,29.49,29.49,0,0,1,.93-2.94,9.18,9.18,0,0,0,.61-1.23c1.08-1.85,1.85-3.71,3.24-5.09.31-.31.62-.93,1.24-1.09.15,0,.31-.3.62-.3a5.11,5.11,0,0,1,2.62-.78,2.79,2.79,0,0,1,2.32,1.08,1.9,1.9,0,0,1,.77.78.53.53,0,0,1,.15.31l.31.46c0,.15.15.31.31.46a.54.54,0,0,0,.31.46,3.13,3.13,0,0,1,.15,1.24,4.88,4.88,0,0,1-.15,1.39,3.24,3.24,0,0,1-.93,1.08l-.31.46c-.15.16-.31.31-.46.31-.15.31-.46.62-.77,1.08a6.91,6.91,0,0,1-.93,1.08,2.27,2.27,0,0,1-.62.62,1.19,1.19,0,0,0-.61.62,2,2,0,0,0-.47.61,9.32,9.32,0,0,0-.77,1.24l-.46,1.08a1.33,1.33,0,0,0-.46.92,5.37,5.37,0,0,0-.47,2,2.69,2.69,0,0,0-.15,1.08v.62a8.9,8.9,0,0,0,.15,4.47,1.38,1.38,0,0,1,.16.78,4.4,4.4,0,0,1,.61,1.23c0,.16.16.31.31.62a2.45,2.45,0,0,1,.47.92c.15.16.15.47.31.47.15.46.15.77.46,1.08a.53.53,0,0,1,.15.31l.47.46c0,.15.15.31.3.46,0,.16.31.31.31.47.47.46.62,1.23.93,1.69.15.16.15.47.31.62l.46.62c.16.31.16.46.31.61l.46,1.09c.16.3.47.46.62.77.15.15.15.46.31.61.31.16.46.47.62.62s.15.31.3.31c0,.16.16.31.31.46a2.07,2.07,0,0,0,.47.62c.46.93,1.08,1.85,1.54,2.93.15.16.15.31.31.62a5.25,5.25,0,0,1,.92,1.85c.31,1.08.78,2.16,1.08,3.24a7.45,7.45,0,0,1,.62,1.7,5.57,5.57,0,0,1,.31.93,7.61,7.61,0,0,1,.31,1.7v.46a1,1,0,0,0,.15.62v1.54A4.06,4.06,0,0,1,130.18,167.32Zm30.87-46v.62a11.91,11.91,0,0,1-.46,2.32l-.16.61c-.77,1.24-1.23,2.63-2.16,4.17l-.15.16-.93,1.23-.15.16a5,5,0,0,1-1.7,1.38c-.15.31-.31.31-.46.31a.16.16,0,0,1-.16.16h-.15a3.24,3.24,0,0,1-.77.46h-2.16a2.9,2.9,0,0,1-2-1.08,2.7,2.7,0,0,1-.92-2.32,5.12,5.12,0,0,1,1.08-3.55l.3-.3a5.26,5.26,0,0,1,.93-1.24,2.07,2.07,0,0,1,.62-.46c.15-.31.31-.31.62-.46,0-.16.15-.16.3-.31l.47-.31.31-.31a6.49,6.49,0,0,0,1.38-4.17v-.31a1.64,1.64,0,0,0,0-1.23,5,5,0,0,0-.3-1.24l-.16-.15a2.73,2.73,0,0,0-.92-1.39c-.16-.15-.31-.15-.31-.31-.31-.31-.47-.46-.62-.46a.94.94,0,0,0-.77-.46,3.61,3.61,0,0,0-1.85-.31h-.47c-.31,0-.61.15-.92.15h-1.7a.91.91,0,0,1-.62.16c-.15,0-.31.3-.46.3-.31.16-.62.16-.93.31-.31,0-.62.31-1.08.62-.15.16-.15.16-.31.16s-.46.3-.46.46c-.15,0-.31.15-.46.31s-.31.31-.47.31c0,.15,0,.15-.3.3l-.62,1.08a4.77,4.77,0,0,0-1.08,1.39l-.31.31a1.64,1.64,0,0,0-.31.93c-.15.15-.15.46-.31.62a17,17,0,0,0-1.08,5.71c0,.15.31.3.31.61v.31a5.17,5.17,0,0,0,.62,1.39,4.73,4.73,0,0,0,.46,1.39l.46,1.24.16.15a1.18,1.18,0,0,1,.31.77.5.5,0,0,1,.15.31c0,.15,0,.46.15.46v.16c.16.15.31.31.31.46a8.34,8.34,0,0,1,.62,1.24c.16.46.46.92.77,1.69l.31.31,1.54,2.78c.31.15.47.62.62.93a13.51,13.51,0,0,1,1.7,2.47,4.89,4.89,0,0,1,.46.92,1.44,1.44,0,0,1,.47.77,1.91,1.91,0,0,0,.46.62,4.74,4.74,0,0,1,.77,1.54,8.5,8.5,0,0,0,1.24,2.94l.3.46a3,3,0,0,1,.78,1.39c0,.15.15.31.15.46s.15.46.31.62c.93,1.08,1.08,2.93,1.23,4.17,0,.31.16.46.16.61a25.93,25.93,0,0,1,.46,5.87,1.74,1.74,0,0,1-.46,1.23c0,.31-.16.47-.16.62v.77a3.2,3.2,0,0,1,0,1.24,8.65,8.65,0,0,1-.61,2.16,12.79,12.79,0,0,1-.47,1.7,1.44,1.44,0,0,1-.15.77,8.79,8.79,0,0,1-.93,3.08,5.46,5.46,0,0,1-.61,1.39.56.56,0,0,0-.16.31,26.08,26.08,0,0,1-2.78,4.48,22.16,22.16,0,0,1-2,1.7,2.89,2.89,0,0,1-1.86.77H141.3a3.92,3.92,0,0,1-2.47-1.08,2.79,2.79,0,0,1-1.55-1.7,3.32,3.32,0,0,1-.15-1.7,2.36,2.36,0,0,1,.15-1.08c.62-.92,1.55-1.85,2.16-2.78a13.82,13.82,0,0,1,2-2.31,6.23,6.23,0,0,0,1.85-1.55l.93-1.38a4.76,4.76,0,0,0,.77-1.86v-1.08c.16-.61.16-1.39.31-2v-.62c0-1.08.31-2.93-.31-4.48,0-.15-.15-.31-.15-.61-.16-.47-.16-1.08-.31-1.39l-.47-.77a4,4,0,0,1-.46-.78c0-.15-.15-.31-.15-.46l-.47-1.23c-.15,0-.15-.16-.3-.16,0-.15-.16-.31-.31-.46-.16-.31-.31-.46-.31-.62-.16-.15-.16-.31-.46-.46a4.18,4.18,0,0,1-.78-1.39,1.69,1.69,0,0,1-.46-.77l-.46-.62c0-.15-.16-.31-.16-.62a3.13,3.13,0,0,0-.61-.92,3.55,3.55,0,0,1-.47-.78c-.15-.15-.31-.61-.46-.77-.31-.15-.46-.46-.62-.62,0-.15-.15-.15-.15-.3-.16-.16-.31-.31-.31-.47l-.46-.61a18.2,18.2,0,0,1-1.55-2.94c-.15-.3-.31-.46-.31-.61-.3-.62-.77-1.24-1.08-2a15.16,15.16,0,0,0-1.08-2.93,6.59,6.59,0,0,0-.61-1.85c0-.31-.16-.47-.16-.78a3,3,0,0,1-.46-1.85v-.46a.91.91,0,0,1-.16-.62c0-.46-.15-.93-.15-1.39v-2.62a9,9,0,0,1,.31-2.78c.15-.62.46-1.23.62-1.85.3-.93.46-1.85.77-2.78l.15-.31a9.05,9.05,0,0,0,.62-1.7l.46-1.08c.16-.31.16-.77.62-1.08a9.93,9.93,0,0,1,2.47-4.16,3.6,3.6,0,0,1,1.39-1.24c.15,0,.31-.15.46-.31l1.39-1.08.15-.15a5.6,5.6,0,0,1,1.86-1.24h.15c0-.15.16-.15.31-.15a3.17,3.17,0,0,1,2.78-.62h.77a11.72,11.72,0,0,1,3.24,0,14.15,14.15,0,0,1,4,1.08,14.73,14.73,0,0,1,3.71,2.32l.15.15a6.62,6.62,0,0,1,1.55,2.32l.3.46a8,8,0,0,1,.47,1.7c.15.31.15.61.46.77a4.89,4.89,0,0,1,.31,1.23,1,1,0,0,1,.15.62,3.72,3.72,0,0,1,.16,1.24.52.52,0,0,0,.15.3v.47c0,.15.16.46.16.61A5.1,5.1,0,0,1,161.05,121.32Zm18.06-28.86a10.82,10.82,0,0,1-.93,3.55,22.84,22.84,0,0,1-1.85,3.09l-.92.93a14.39,14.39,0,0,0-1.55,1.38,6.48,6.48,0,0,1-1.08.93,5.38,5.38,0,0,1-1.85,1.08,7.82,7.82,0,0,1-2.62.46h-2.16c-.47,0-.78.16-1.24.16a7.24,7.24,0,0,1-2.62-.16c-.62,0-.93-.3-1.24-.3a3.71,3.71,0,0,1-1.23-.31,15.36,15.36,0,0,1-3.86-2l-1.39-1.08a6.09,6.09,0,0,1-1.08-3.09A6.71,6.71,0,0,1,154.57,94a3.11,3.11,0,0,1,1.54-1.24,10.36,10.36,0,0,1,2.16,0,5.49,5.49,0,0,1,2,.46c.31,0,.46.16.77.16l.47.46a8.75,8.75,0,0,1,1.23.93l.93,1.08a8.16,8.16,0,0,0,2.31,1.7h1.39c.62-.16,1.08-.16,1.54-.31a5.9,5.9,0,0,0,2.63-2.16c.31-.31.46-.77.77-1.08a2.19,2.19,0,0,0,.46-1.7V91.23a9.08,9.08,0,0,0-.15-2,4.35,4.35,0,0,1-.46-1.54,5.27,5.27,0,0,1-.31-.93c-.31-.62-1.08-1.08-1.55-1.7l-.46-.3c-.31-.16-.46-.62-.77-.78s-.62-.3-1.08-.46c-.31,0-.77-.31-1.08-.31a2,2,0,0,0-.93-.15c-.31-.16-.46-.46-.77-.46-.15-.16-.46-.16-.77-.31h-2.93c-.47.15-.78.15-1.24.31a16.5,16.5,0,0,1-2.47.92,12.57,12.57,0,0,0-2.16.93l-1.85.92a15.64,15.64,0,0,0-1.7,1.24c-.62.46-1.39.77-2,1.23a5.8,5.8,0,0,1-.77,1.08,5.55,5.55,0,0,0-1.39.93l-2.16,1.85a5.48,5.48,0,0,0-1.39,1.24,25.73,25.73,0,0,0-2.31,2,10.94,10.94,0,0,1-1.55,1.39,7.93,7.93,0,0,0-1.23,1.08,13.84,13.84,0,0,1-1.54,1.24,5.27,5.27,0,0,1-1.39,1.23l-1.24.93c-.15.15-.61.15-.92.31l-1.86,1.08a8.31,8.31,0,0,1-.92.61,1.69,1.69,0,0,1-.77.47,25.15,25.15,0,0,1-4,1.23,4.3,4.3,0,0,1-1.39.31,3.47,3.47,0,0,1-1.69.46,14.91,14.91,0,0,1-2.32.47c-.77,0-1.39.15-2.16.15-1.85,0-3.86-.46-5.56-.46a4.53,4.53,0,0,1-2-.31c-.77-.31-1.7-.46-2.47-.77l-.46-.31c-.16,0-.31-.16-.47-.16l-.77-.3c-.46-.16-.62-.31-1.08-.47s-.62-.15-.93-.31a10.54,10.54,0,0,1-3.39-2.93,6.49,6.49,0,0,1-1.39-2.93A20.13,20.13,0,0,1,99.78,94c-.16-.62-.16-1.24-.31-1.86,0-.3.15-.46.15-.77a6.44,6.44,0,0,0,.16-2.47,9,9,0,0,1,.62-3.55,5.32,5.32,0,0,1,1.23-1.54,7.57,7.57,0,0,1,1.7-2.62,6.38,6.38,0,0,1,2.31-1.7,7.84,7.84,0,0,1,1.39-.93c.47-.15.93-.46,1.39-.62,1.08-.3,1.85-.92,2.78-1.23a24.53,24.53,0,0,1,3.24-.15c.93,0,2,.15,3.09.15a6.42,6.42,0,0,1,2.31.62c.16.15.31.31.47.31.46.15.92.15,1.23.3a6.06,6.06,0,0,1,2,1.39,7.53,7.53,0,0,1,1.23,4.48,3.56,3.56,0,0,1-.31,1.39,2.74,2.74,0,0,1-.61.77c-.31.46-1.08.77-1.55,1.24-1.23.61-3.24,1.08-4.47.3a13.22,13.22,0,0,0-1.39-1.08,7.7,7.7,0,0,0-2.32-1.54,6.21,6.21,0,0,0-2.93-.46c-.62,0-1.08-.31-1.7,0a4.36,4.36,0,0,0-1.85,1.23,14.65,14.65,0,0,0-1.39,1.85,17.93,17.93,0,0,0-.31,2.63,7,7,0,0,0,.16,3.08c0,.31.31.62.46.93.31.62.46,1.54,1.08,2a6.2,6.2,0,0,0,3.24,1.39,13,13,0,0,0,2.32.61h1.54c.93,0,2.16-.15,3.09-.15.31,0,.46.15.77.15,1.39-.15,2.47-1.08,3.7-1.23l1.24-.46a6.21,6.21,0,0,1,1.54-.62A33.6,33.6,0,0,0,129,93.23a12.81,12.81,0,0,0,2.47-1.85c.77-.46,1.08-1.08,1.7-1.54a8.32,8.32,0,0,1,1.69-1.24,10.42,10.42,0,0,0,1.55-1.23,8,8,0,0,1,2.47-2,8.74,8.74,0,0,0,1.23-.92,19.61,19.61,0,0,1,2.63-2.16c.61-.47,1.38-.93,2.16-1.55s1.39-.92,2-1.39l1.08-.61a20.69,20.69,0,0,0,2.78-1.08l1.39-.47a5.13,5.13,0,0,0,1.08-.46c.31-.15.62-.46.93-.46A2.1,2.1,0,0,1,155,76a6.35,6.35,0,0,1,1.85-.46,1.38,1.38,0,0,1,.78-.16,2.36,2.36,0,0,0,1.08-.15h5.4a10.28,10.28,0,0,1,3.09.61l1.69.47a6.49,6.49,0,0,1,2.47,1.08,4.6,4.6,0,0,1,1.7.92,4,4,0,0,1,.77.93,1.49,1.49,0,0,1,.77.62,10.34,10.34,0,0,1,2.47,3.55,2.4,2.4,0,0,1,.62,1.08l.62,1.54a6.42,6.42,0,0,1,.77,2.93A14,14,0,0,1,179.11,92.46Z"/><rect class="cls-2" width="266.28" height="266.5"/></g></g></svg>