<svg xmlns="http://www.w3.org/2000/svg" viewBox="0 0 33.83 36.59"><defs><style>.cls-1{fill:#1d1d1b;}</style></defs><g id="Camada_2" data-name="Camada 2"><g id="Camada_1-2" data-name="Camada 1"><path class="cls-1" d="M10.33,23c.12,0,.21,0,.37,0h.2a1.74,1.74,0,0,0,.74-.16c.09,0,.29-.08.37-.13a3.36,3.36,0,0,0,.78-.28c.45-.12.82-.29,1.32-.45a7.85,7.85,0,0,0,.86-.41l.29-.17a9.42,9.42,0,0,0,1.27-.65c.08-.09.16-.25.28-.29l.21-.17s.08,0,.08-.08a1,1,0,0,0,.37-.16,1.1,1.1,0,0,1,.25-.21c.12-.08.29-.12.37-.24a3.39,3.39,0,0,0,.45-.29.42.42,0,0,1,.2-.08,1.71,1.71,0,0,1,.37-.21l.25-.16a2.18,2.18,0,0,0,.61-.33,1,1,0,0,1,.25-.16c.12,0,.16-.05.29-.17a1.05,1.05,0,0,1,.2-.25.5.5,0,0,1,.13,0c.08-.08.24-.12.41-.24l.24,0c.13,0,.25-.17.41-.21a.55.55,0,0,1,.29-.16c.12-.08.33-.13.53-.25s.21,0,.29-.08a4.18,4.18,0,0,1,1.49-.14,1.06,1.06,0,0,1,.44-.11.15.15,0,0,1,.12,0,.44.44,0,0,1,.25-.08,6.45,6.45,0,0,1,2.5.41.4.4,0,0,1,.33.12.92.92,0,0,1,.45.17l.17.12c.2.21.41.33.53.49a1.18,1.18,0,0,0,.49.29l.13.12s.08.13.16.17l.12.24a.51.51,0,0,1,.21.21c0,.08,0,.12.08.16a2.34,2.34,0,0,1,.25.5.53.53,0,0,1,.12.28c0,.17.08.21.08.25s.07.2.08.31a1.68,1.68,0,0,0,.37.06,2,2,0,0,0,.7,0,2,2,0,0,0,.86-.62,2.28,2.28,0,0,0,.49-1.19v-.63a2.1,2.1,0,0,0-.24-.27L33,17.58a3.31,3.31,0,0,0-.49-.7.55.55,0,0,1-.12-.16,2.08,2.08,0,0,0-.49-.58A5.19,5.19,0,0,0,30.15,15a3.44,3.44,0,0,0-.49-.16,1.32,1.32,0,0,1-.49-.25c-.33-.08-.5-.16-.78-.25l-.13,0-.3-.12h0a4.94,4.94,0,0,1-.74-.21l-.2-.05a3.28,3.28,0,0,1-.58-.15l-.21,0a3,3,0,0,0-.53,0c-.13,0-.25,0-.33,0a.75.75,0,0,1-.29,0l-.1,0h-.39a.62.62,0,0,0-.26-.09h-.14a.62.62,0,0,0-.26.09,2.55,2.55,0,0,0-.57,0H23s-.08,0-.16,0a1.84,1.84,0,0,0-.78.12,3.17,3.17,0,0,1-.37.16,5.1,5.1,0,0,0-.78.25,9.69,9.69,0,0,1-1.32.45,2.68,2.68,0,0,0-.86.45.84.84,0,0,1-.29.13,5,5,0,0,0-1.27.73c0,.05-.16.09-.28.21a.54.54,0,0,1-.21.16s-.08.09-.12.09a1.45,1.45,0,0,0-.29.2c-.12,0-.16.13-.29.21l-.37.16a1.12,1.12,0,0,1-.45.33s-.16,0-.2.08-.25.21-.41.25a1.67,1.67,0,0,0-.21.16,1.38,1.38,0,0,0-.61.33c-.13.08-.17.12-.21.12l-.29.17a.7.7,0,0,1-.2.16c0,.08-.13.17-.17.17a1.73,1.73,0,0,1-.41.2,1.67,1.67,0,0,1-.24.08,2.43,2.43,0,0,0-.37.21.6.6,0,0,0-.33.16c-.2,0-.33.13-.57.17-.05.08-.17.08-.25.12a7.39,7.39,0,0,1-1.33.11,2.45,2.45,0,0,1-.64.18.14.14,0,0,1-.08,0c-.13,0-.21.08-.25.08a7,7,0,0,1-2.54-.41c0-.08-.21-.08-.29-.12a.9.9,0,0,1-.45-.21l-.17-.16c-.2-.17-.41-.25-.53-.46a5.21,5.21,0,0,1-.49-.32.18.18,0,0,1-.12,0,.4.4,0,0,1-.13-.21l-.16-.25s-.17-.08-.21-.16,0-.12-.08-.16a2,2,0,0,1-.25-.45,1,1,0,0,0-.16-.41c0-.09,0-.13,0-.21H2.45a1,1,0,0,0-.61.08s-.17,0-.21,0-.08.09-.12.09a.46.46,0,0,1-.25.12A.55.55,0,0,0,1.1,17a.6.6,0,0,0-.29.37,1.44,1.44,0,0,0-.41,1A2,2,0,0,0,.5,19L.56,19c.21.21.41.5.58.66a.7.7,0,0,0,.16.2c.08.21.25.33.37.54a6,6,0,0,0,1.85,1.15A5.39,5.39,0,0,0,4,21.8,3.56,3.56,0,0,1,4.5,22a4.36,4.36,0,0,1,.7.29l.12,0a5,5,0,0,0,.55.14l.26.06.47.12a4.13,4.13,0,0,1,.7.21l.2,0a1.18,1.18,0,0,0,.53,0h.29a.61.61,0,0,1,.33.13c.16,0,.28,0,.49,0h.62A1.11,1.11,0,0,0,10.33,23Z"/><path class="cls-1" d="M.48,27.19a.64.64,0,0,1,.29-.37.55.55,0,0,1,.16-.12.43.43,0,0,0,.25-.13s.08-.08.12-.08.17,0,.21,0a1,1,0,0,1,.61-.08,2.8,2.8,0,0,1,.58,0,1.33,1.33,0,0,1,.49.37c.12,0,.16,0,.21.16s.16.13.2.17.29.33.41.41a2.8,2.8,0,0,0,.49.41c0,.08.21.16.29.2a.52.52,0,0,0,.25.29c.12.12.16.21.24.25s.37.2.58.28a2.27,2.27,0,0,0,.49.25.9.9,0,0,0,.45.25,5.69,5.69,0,0,0,.78.16,1.87,1.87,0,0,1,.45,0h.33a8.53,8.53,0,0,0,2-.08c.08,0,.21,0,.25-.12.24-.05.37-.13.57-.17a.64.64,0,0,1,.33-.16,3,3,0,0,1,.37-.21,1.67,1.67,0,0,0,.24-.08,2.08,2.08,0,0,0,.42-.2s.16-.09.16-.17a.9.9,0,0,0,.21-.16l.28-.17s.08,0,.21-.12a1.44,1.44,0,0,1,.61-.33c.08-.08.17-.12.21-.16s.24-.17.41-.25.16,0,.2-.08a1.24,1.24,0,0,0,.46-.33l.37-.16c.12-.09.16-.17.28-.21a1.82,1.82,0,0,1,.29-.2s.08-.09.12-.09a.42.42,0,0,0,.21-.16c.12-.12.24-.16.28-.21a4.89,4.89,0,0,1,1.28-.73.88.88,0,0,0,.28-.13,2.74,2.74,0,0,1,.87-.45A10,10,0,0,0,20.55,24a4.2,4.2,0,0,1,.78-.25,3.17,3.17,0,0,0,.37-.16,1.84,1.84,0,0,1,.78-.12c.08,0,.12,0,.16,0H23a2.64,2.64,0,0,1,.58,0,.59.59,0,0,1,.65,0h.45a6.36,6.36,0,0,1,1.19.08,2.77,2.77,0,0,0,.87.24,6.69,6.69,0,0,1,1.18.37l.13,0c.29.09.45.17.78.25a1.41,1.41,0,0,0,.49.25,3.44,3.44,0,0,1,.49.16A5.19,5.19,0,0,1,31.59,26a2.19,2.19,0,0,1,.49.57.5.5,0,0,0,.12.17,3.8,3.8,0,0,1,.5.7l.16.08a1.49,1.49,0,0,1,.49.74c0,.12.12.16.12.24a2.13,2.13,0,0,1,.25,1.15v.41c0,.21,0,.45,0,.7s0,.45,0,.66a10.22,10.22,0,0,1-.53,1.8,4.33,4.33,0,0,1-1,1.6l-.08.08a3.55,3.55,0,0,1-1,.74c0,.09-.08.09-.12.13a3.09,3.09,0,0,1-.65.2,1.57,1.57,0,0,1-.46.17c-.16,0-.28.12-.49.16l-.29,0a1.47,1.47,0,0,0-.53.13h-.33a.81.81,0,0,1-.29.12c-.32,0-.65,0-.9,0a.61.61,0,0,0-.37-.08c-.33-.09-.69-.09-1-.21l-.21-.12a5.18,5.18,0,0,1-1.72-.87l-.17-.12L23,34.78l-.12,0a1.92,1.92,0,0,1-.62-.78c-.08,0-.08-.12-.12-.16v-.08l0-.09a1.28,1.28,0,0,1-.21-.28,3.46,3.46,0,0,1,0-.91v-.08a2.32,2.32,0,0,1,.41-.94,1.32,1.32,0,0,1,1.07-.37,2.54,2.54,0,0,1,1.52.45c0,.08.08.08.08.12a1.21,1.21,0,0,1,.53.37,1.36,1.36,0,0,0,.29.37l.21.25a.09.09,0,0,0,.08.08c0,.08.12.12.12.21a.89.89,0,0,0,.21.2,2.94,2.94,0,0,0,1.84.62l.13,0a2.55,2.55,0,0,0,.53,0,2.72,2.72,0,0,0,.53-.17l.13,0c.2-.12.45-.21.57-.45a.66.66,0,0,0,.17-.16c.08-.09.16-.13.16-.21s.08-.16.12-.33a1.88,1.88,0,0,0,.17-.9.35.35,0,0,0,0-.17v-.86a.3.3,0,0,0-.05-.2c0-.13-.08-.21-.08-.33s0-.08-.08-.25a.59.59,0,0,0-.12-.29,1.74,1.74,0,0,0-.25-.49s0-.08-.08-.16a.51.51,0,0,0-.21-.21l-.12-.24c-.08,0-.12-.17-.16-.17L29.45,28a1.24,1.24,0,0,1-.49-.29c-.12-.16-.33-.28-.53-.49l-.17-.12a.92.92,0,0,0-.45-.17.4.4,0,0,0-.33-.12,6.42,6.42,0,0,0-2.5-.41.4.4,0,0,0-.24.08.16.16,0,0,0-.13,0,1.41,1.41,0,0,0-.65.21,1.45,1.45,0,0,0-.5.2c-.16.09-.37.13-.57.25,0,0,0,0-.08,0s-.21.12-.33.21a.33.33,0,0,1-.17,0,.2.2,0,0,1-.12,0,0,0,0,0,0,0,0,1.88,1.88,0,0,0-.29.16c-.16,0-.41.17-.53.21s-.41.2-.7.33l-.16.12a10.23,10.23,0,0,0-1.23.74,1.17,1.17,0,0,0-.37.28,9.13,9.13,0,0,1-1.19.7c-.09,0-.21.17-.29.21a1,1,0,0,0-.37.16.51.51,0,0,1-.25.17A1.73,1.73,0,0,1,16,31a3.53,3.53,0,0,0-1.23.45.43.43,0,0,0-.2.16,3,3,0,0,1-.66.37s-.08,0-.2.12a.63.63,0,0,0-.25.09,3.74,3.74,0,0,1-1.89.57l-.28,0a10,10,0,0,1-2.51.13c-.2,0-.33,0-.49,0A.61.61,0,0,0,8,32.77H7.7a1.18,1.18,0,0,1-.53,0c-.37-.08-.74-.16-1-.24a2.7,2.7,0,0,0-.74-.21c-.13,0-.21-.08-.33-.08a9.3,9.3,0,0,1-1.27-.41l-.62-.33A9,9,0,0,1,.93,30.1a.94.94,0,0,1-.41-.49.34.34,0,0,1-.12-.2,3.11,3.11,0,0,1-.33-1.19A1.48,1.48,0,0,1,.48,27.19Z"/><path class="cls-1" d="M.06,6.54a3.88,3.88,0,0,1,0-1.36A8.37,8.37,0,0,1,.55,3.29a5,5,0,0,1,1-1.55l.12-.05a1.9,1.9,0,0,1,1-.78s.08,0,.12-.12L3.47.54A1.56,1.56,0,0,0,3.88.46,1.35,1.35,0,0,1,4.41.3,1.3,1.3,0,0,0,4.74.22,1.06,1.06,0,0,1,5.23.14h.13a.3.3,0,0,0,.2-.05,2.51,2.51,0,0,1,.29,0,1.65,1.65,0,0,1,.9,0c.12,0,.25.05.37.05a9.35,9.35,0,0,1,1,.2l.2.08a5,5,0,0,1,1.72,1l.13,0a1.71,1.71,0,0,1,.53.41l.12,0a1.85,1.85,0,0,1,.66.74.43.43,0,0,1,0,.2s0,0,0,.08,0,0,0,.05a.58.58,0,0,1,.21.32,3.46,3.46,0,0,1,0,.91v0a1.59,1.59,0,0,1-.45.94,1.14,1.14,0,0,1-1,.41A2.65,2.65,0,0,1,8.84,5.1C8.8,5,8.76,5,8.68,5a2.56,2.56,0,0,1-.49-.5.72.72,0,0,0-.25-.24A2.38,2.38,0,0,1,7.78,4c-.09,0-.09-.12-.13-.16a.21.21,0,0,0-.16-.08c0-.13-.08-.25-.16-.29a3.33,3.33,0,0,0-1.85-.62H4.82a1.81,1.81,0,0,0-.53.21l-.12,0c-.21.12-.46.2-.58.41l-.16.25c-.09,0-.13.08-.21.12a.63.63,0,0,0-.08.33A2.1,2.1,0,0,0,3,5.1v.16a1.08,1.08,0,0,1,0,.37v.54a.26.26,0,0,0,.08.2l0,.29c0,.08,0,.12,0,.21a1,1,0,0,1,.16.41,2,2,0,0,0,.25.45s0,.08.08.16.17.12.21.16L4,8.3a.4.4,0,0,0,.13.21.18.18,0,0,0,.12,0,5.21,5.21,0,0,0,.49.32c.12.21.33.29.53.46l.17.16a.94.94,0,0,0,.45.21c.08,0,.25,0,.29.12a7,7,0,0,0,2.54.41s.12-.08.25-.08a.14.14,0,0,0,.08,0,2.34,2.34,0,0,0,.7-.21,2,2,0,0,1,.45-.2,2.29,2.29,0,0,0,.61-.33.14.14,0,0,0,.09,0l.28-.17c.13,0,.17,0,.21,0h.12a0,0,0,0,1,0,0c0-.08.21-.12.29-.16a1.65,1.65,0,0,1,.53-.21,3,3,0,0,0,.7-.41l.17-.08c.41-.25.9-.45,1.23-.7l.37-.24a3.12,3.12,0,0,1,1.19-.78.84.84,0,0,1,.28-.17,2.71,2.71,0,0,0,.37-.16A1.72,1.72,0,0,0,17,6a1.49,1.49,0,0,1,.7-.37,6,6,0,0,0,1.23-.49c0-.08.16-.08.2-.12a2.48,2.48,0,0,1,.66-.45s.08,0,.21,0a.83.83,0,0,1,.24-.08,3.78,3.78,0,0,1,1.89-.61h.29a11.6,11.6,0,0,1,2.42-.17,1.23,1.23,0,0,1,.61.13.75.75,0,0,0,.29,0c.08,0,.21,0,.33,0a3,3,0,0,1,.53,0,8.9,8.9,0,0,1,1,.24,5.3,5.3,0,0,0,.74.21c.12,0,.2,0,.32,0a3,3,0,0,1,1.28.49c.2.13.45.17.61.29s.13,0,.25.08a7.26,7.26,0,0,1,1.89,1.15c.24.25.49.49.74.78a1.83,1.83,0,0,1,.4.9v.7a2.28,2.28,0,0,1-.49,1.19,2,2,0,0,1-.86.62,2,2,0,0,1-.7,0,2.6,2.6,0,0,1-.49-.08c-.41-.21-.78-.58-1.19-.82a10.08,10.08,0,0,1-.9-1c-.25-.25-.45-.66-.74-.86a2.09,2.09,0,0,1-.62-.41A2.75,2.75,0,0,0,27,7.11h-.33S26.61,7,26.53,7C26.28,7,26,7,25.71,7h-.29a4.8,4.8,0,0,0-2,.08c-.08.08-.16.08-.29.08s-.41.17-.53.25a.55.55,0,0,0-.29.16c-.16,0-.28.17-.41.21l-.24,0c-.17.12-.33.16-.41.24a.5.5,0,0,0-.13,0,1.05,1.05,0,0,0-.2.25c-.13.12-.17.17-.29.17a.84.84,0,0,0-.24.16,2.43,2.43,0,0,1-.62.33l-.25.16a1.71,1.71,0,0,0-.37.21.42.42,0,0,0-.2.08,2.85,2.85,0,0,1-.45.29c-.08.12-.25.16-.37.24a1.1,1.1,0,0,0-.25.21,1,1,0,0,1-.37.16s0,0-.08.08l-.21.17c-.12,0-.2.2-.28.29a9.42,9.42,0,0,1-1.27.65l-.29.17a7.05,7.05,0,0,1-.86.41c-.5.16-.87.33-1.32.45a3.36,3.36,0,0,1-.78.28c-.08,0-.28.09-.36.13a1.8,1.8,0,0,1-.74.16H11.1c-.16,0-.25,0-.37,0a1.11,1.11,0,0,1-.57.09H9.05a4,4,0,0,1-1.19-.13A3,3,0,0,0,7,12.81c-.37-.12-.78-.16-1.27-.32l-.13,0a4.36,4.36,0,0,0-.7-.29A3.56,3.56,0,0,0,4.41,12a5.39,5.39,0,0,1-.49-.24,6,6,0,0,1-1.85-1.15A5.77,5.77,0,0,1,1.7,10a.7.7,0,0,1-.16-.2c-.17-.16-.37-.45-.57-.66L.88,9.08a1.63,1.63,0,0,1-.49-.86h0A.82.82,0,0,1,.31,8,1.77,1.77,0,0,1,.06,6.87Z"/></g></g></svg>