<svg xmlns="http://www.w3.org/2000/svg" viewBox="0 0 10.12 8.86"><defs><style>.cls-1{fill:#1d1d1b;}</style></defs><g id="Camada_2" data-name="Camada 2"><g id="Camada_1-2" data-name="Camada 1"><path class="cls-1" d="M.07,6.8c-.28-.22.35-.94.44-1.2s.23-.31.29-.48S.84,5,.87,5a1.51,1.51,0,0,1,.18-.26c.26-.44.47-.9.75-1.31a3.13,3.13,0,0,1,.54-.91c.22-.33.39-.71.6-1s.39-.68.57-1c0,0,.07-.07.1-.1s.13.29.25.34a6,6,0,0,0,1,.85c.35.22.72.4,1.07.59a3.52,3.52,0,0,0,1.22.41c.06,0,.2,0,.14.11s-.11.08-.1.14,0,0,0,0c-.25.51-.55,1-.81,1.44-.63,1-1.22,2-1.77,3-.26.45-.55.93-.84,1.4-.11.2-.73.26-.9.14a7.52,7.52,0,0,1-.91-.22A3.37,3.37,0,0,1,1,8C.66,7.59.17,7.26.06,6.7.06,6.73.07,6.78.07,6.8Zm2.46-1c.18.08.39-.09.49-.24s0-.05,0-.07a.69.69,0,0,0,0-.35.47.47,0,0,1,0-.17h0v0a0,0,0,0,1,0,0,.16.16,0,0,1,0-.07c0-.09.05-.16.12-.2s.1,0,.13-.06a.09.09,0,0,0,.09-.06s0,0,0,0,0,0,0,0h0c0-.06,0-.1-.1-.1s-.24.17-.32.27a.46.46,0,0,0-.1.26V5c0,.13,0,.26,0,.39v0h0s0,.06,0,.1a.32.32,0,0,1-.19.15v0h0c-.08,0-.2,0-.19-.12a.18.18,0,0,1,.11-.14h0s.06,0,.07,0a.09.09,0,0,0,0-.17.32.32,0,0,0-.24.14l0,.06a.37.37,0,0,1,0,.09A.32.32,0,0,0,2.53,5.81ZM3.12,6c.06,0,.13,0,.19-.08a.66.66,0,0,0,.18-.19.35.35,0,0,0,.09-.25c0-.1,0-.2,0-.3V5s0,0,0,0h0s0,0,0,0a.29.29,0,0,1,.1-.24s.06,0,.08,0h0a0,0,0,0,0,0,0h.08s.1,0,.11.07v0a.06.06,0,0,1,0,0A.17.17,0,0,1,3.88,5h0c-.12,0-.18.16,0,.18h0s0,0,0,0a.31.31,0,0,0,.24-.2s0,0,0,0v0s0,0,0-.06a.28.28,0,0,0-.25-.26.36.36,0,0,0-.24.07.5.5,0,0,0-.21.26.06.06,0,0,0,0,0,.86.86,0,0,0,0,.27h0a.31.31,0,0,1,0,.1V5.4s0,0,0,0,0,0,0,0a.37.37,0,0,1-.1.26c-.06.06-.16.06-.23.11S3,6,3.12,6Zm.7-1.62c.22,0,.52-.18.71,0a.34.34,0,0,1,.09.14c0,.1-.08.18-.16.17s-.08-.08-.11-.15-.27.09-.11.2a.3.3,0,0,0,.51-.19.27.27,0,0,0,0-.15c0-.12-.15-.18-.25-.22a.56.56,0,0,0-.23,0c-.24,0-.49.13-.73.07-.07-.05-.15-.07-.19-.15s.08-.26.19-.2.07.22.22.17-.13-.35-.28-.3a.29.29,0,0,0-.19.48A.65.65,0,0,0,3.82,4.36Zm0-4.29s0,0,.05,0a.68.68,0,0,1,.4,0c.35.09,1.28.27,1.42.6A2.33,2.33,0,0,0,5.3,1c-.11.09,0,.21.1.3s.32.28.44.22a3.08,3.08,0,0,0,.55-.45c.06-.09.13,0,.18,0a2.85,2.85,0,0,1,.72.62c.17.18.4.62,0,.64A3.63,3.63,0,0,1,6.19,2,4.73,4.73,0,0,1,3.85.22.8.8,0,0,0,3.82.07ZM5.6.94A2.25,2.25,0,0,1,6.94.24,1.9,1.9,0,0,1,8.18.46a1.54,1.54,0,0,1,.73.89,1.51,1.51,0,0,1-.05,1.28c-.14.43-.5.72-.63,1.15a1.31,1.31,0,0,0-.09.91c.06.11-.07.15-.13.21s-.06,0-.08,0a.39.39,0,0,1-.16-.1s0-.13,0-.18a2.2,2.2,0,0,1,.12-.84A4.06,4.06,0,0,1,8.27,3a5.07,5.07,0,0,0,.32-.61,1.33,1.33,0,0,0,0-1A1.11,1.11,0,0,0,8,.73c-.06,0-.15,0-.22,0L7.48.6a1.17,1.17,0,0,0-.67,0c-.92.12-.89,1.1-1.31.4h0S5.56,1,5.6.94ZM7.51,5.5c-.1-.23-.12-.56-.2-.82,0,0,.05,0,0,0,.16.16.35.27.52.42s.14.06.3-.05S9.28,3.91,9,4.3c-.05.27-.21.51-.28.78-.06.12-.11.25-.16.37s0,0,0,.06a6.09,6.09,0,0,0,.71-.27c0,.1-.12.12-.15.21s-.16.26-.24.41c.33.07.83-.17,1.2-.21a4.43,4.43,0,0,1-.65.49c0,.05-.16.1-.14.15.28.12.52.29.79.42l0,0c-1.21,0-1.47-.43-.74.5-.27-.05-.48-.25-.75-.32,0,.16.08.32.14.47s.07.43.12.65A7.39,7.39,0,0,1,8.13,7,1.91,1.91,0,0,0,8,7.32c-.06.11-.11.26-.16.38,0,0,0-.07,0-.12s0-.23-.06-.35,0-.3-.11-.39c-.23.21-.44.48-.66.71a.87.87,0,0,1,.1-.24c0-.08,0-.17.06-.26a.44.44,0,0,0,.07-.22,2.38,2.38,0,0,0,.17-.49,4.67,4.67,0,0,1-.5.14,2.17,2.17,0,0,1-.24.07h0l.52-.46S7.23,6,7.19,6a3.38,3.38,0,0,0-.64-.19c-.14,0-.3,0-.4-.13A8.72,8.72,0,0,1,7.51,5.5Zm0,.66a.53.53,0,0,1,.25,0c0,.14-.11.3-.15.44.1-.06.18-.14.28-.19.07.42-.07.63.25.08.09.12.17.24.27.35,0-.13,0-.26,0-.4.1,0,.18.12.28.16a.78.78,0,0,1-.07-.23c0-.06,0-.08.05-.11s.21-.12.28-.2,0,0,0,0-.3,0-.46,0,0-.13,0-.2.06-.12,0-.15v0l-.28.09c-.07-.3.06-.51-.22-.12-.3-.18-.32-.29-.17.13a2.08,2.08,0,0,0-.43,0C7.77,6.06,7.69,5.92,7.51,6.16Z"/></g></g></svg>