<svg xmlns="http://www.w3.org/2000/svg" viewBox="0 0 7.18 9.08"><defs><style>.cls-1{fill:#1d1d1b;}</style></defs><g id="Camada_2" data-name="Camada 2"><g id="Camada_1-2" data-name="Camada 1"><path class="cls-1" d="M.35,3.62A4.72,4.72,0,0,1,.71,3c.05-.07.36-.32.4-.21L1,3c0,.13-.05.28-.09.4a1.92,1.92,0,0,0-.12.25.93.93,0,0,0-.06.47,3,3,0,0,0,.69-.28s0,.12,0,.16a.58.58,0,0,0,.15.39,4,4,0,0,1-.81.48,2.39,2.39,0,0,1-.61.17C.09,5.07,0,5,0,4.85A1.85,1.85,0,0,1,.35,3.62ZM.69,6.06c0-.66-.1-.23.72-.35a2.54,2.54,0,0,0,1-.37.75.75,0,0,0,.28.39c.19.08-.16.19-.23.25a2.61,2.61,0,0,1-1.73.41c-.08,0-.08-.09,0-.15A1,1,0,0,1,.69,6.06ZM1,6.54a3.06,3.06,0,0,0,.8-.07,3.57,3.57,0,0,0,1.14-.6s.07,0,.12.06A.31.31,0,0,0,3.24,6a1.39,1.39,0,0,0,1.13-.51c.37-.43.6-1,1.17-1.23s1.73.14,1.64,1-1,1.56-1.61,1.92c-.42.33-1.13.44-1.41.9,0,.13.11.23.21.3s0,0,0,.05-.17,0-.24,0A.29.29,0,0,1,3.93,8C4,7.48,5.38,7.2,5.77,6.71s.66-1.18.17-1.54C5.46,5,5,5.4,4.78,5.76a3.47,3.47,0,0,0-.58,1,5,5,0,0,1-1,1.12c-1,.53-2.29.32-2.48-.9C.72,6.63.58,6.47,1,6.54ZM.77,5.05C.77,5,1,5,1,4.91s.15-.16.24-.13A2,2,0,0,0,1.83,5a3.5,3.5,0,0,1,.45.07s.06,0,.07,0,0,.1,0,.11a4.74,4.74,0,0,0-.58.24,2.21,2.21,0,0,1-.46.11,1,1,0,0,1-.51,0A2.33,2.33,0,0,1,.77,5.05ZM1,3.56a2.42,2.42,0,0,1,.25-.86s.07,0,.11,0,.19,0,.21,0a.59.59,0,0,0,.05.64c.71.24.76-.22,1-.72,0,0,0,0,0,0h.33c.09,0-.06.28-.07.33a1.87,1.87,0,0,0-.16.49.17.17,0,0,0,.1.12s.06,0,0,.05-.1.34-.21.36a2,2,0,0,0-.29-.22c-.08-.07-.2-.08-.29-.16a1.12,1.12,0,0,0-.49.15c-.05,0-.1,0-.12.08a.09.09,0,0,1-.1.07L1,4C.91,4,.83,4.07.85,4A.75.75,0,0,1,1,3.56ZM1.24,2.1c0-.07,0-.15,0-.21s.08,0,.13,0,.12.17.18.24.07.08.07.13.06.31-.07.34-.08,0-.12-.14a.81.81,0,0,0-.1-.18c0-.2,0,.05-.19,0H1.08C1.17,2.31,1.23,2.19,1.24,2.1Zm.09-.72s0,0,0,0,.08,0,.07-.08c0-.22.12-.36.22-.56S1.73.6,1.91.69s.14.07.23.11a1.12,1.12,0,0,1,.27.1s.23,0,.23-.06-.06-.21,0-.13a.39.39,0,0,0,.23.16s0-.07,0-.1,0,0,0,0,.18.34.15.55a1.29,1.29,0,0,1-.3.82.61.61,0,0,1-.59.31,1.62,1.62,0,0,1-.7-.58c0-.06-.06,0-.12,0s-.23-.17-.26-.29A.15.15,0,0,1,1.33,1.38ZM1.77.13a1.12,1.12,0,0,1,1.08,0,1.29,1.29,0,0,1,.64.9c.06.2-.07.48.12.63-.09,0-.16-.12-.16-.19A.63.63,0,0,0,3.53,2c0,.1.06.22,0,.3a.2.2,0,0,0-.06-.18c0,.23.11.32.25.47a1.27,1.27,0,0,1,.07.74c0,.11-.1.18-.12.29-.12-.11.15-.41,0-.7,0-.12-.13-.31-.28-.32a1.24,1.24,0,0,0-.29-.1c-.17,0-.36,0-.52,0s.1-.12.16-.18a1.23,1.23,0,0,0,.35-.59,1.14,1.14,0,0,0,.08-.58c0-.14,0-.33-.2-.4s-.14-.15-.14,0S2.68.59,2.59.63s0,.07,0,.11c.12.3-.69-.18-.79-.18s-.12.15-.2.22a1.29,1.29,0,0,0-.18.35,1.1,1.1,0,0,1,0,.16s0,0,0,0-.11-.09-.18-.12,0-.07,0-.09a.55.55,0,0,1,0-.27A.67.67,0,0,1,1.77.13ZM1.2,3.8s.06,0,.06-.08h0s0,0,0,0,0,0,0,0h0s0,0,0-.06,0,0,0,0a0,0,0,0,0,0,0,.07.07,0,0,0,0,.06v.05a.25.25,0,0,0,0,.07s0,0,0,0a0,0,0,0,1,0,0s0,0,0,0,0,0,0,0,0,0,0,0,0,0,0,0a.06.06,0,0,0,0,0A.05.05,0,0,0,1.2,3.8Zm.1-.32a.25.25,0,0,1,.09,0c.05,0,0,.08,0,0s0,0,0,0a.06.06,0,0,0,.08,0,.11.11,0,0,0,0-.05c-.07,0-.13.05-.2.06a0,0,0,1,1,0,0s0,0,.05,0-.05-.05-.06,0,0,.09,0,.1A.11.11,0,0,0,1.3,3.48Zm0,.12s0,0,0,0h0v0h0a.06.06,0,0,1,0,.07c0,.06.06,0,.06,0s0,0,0,0a.08.08,0,0,1,0,0s0,0,0,0a0,0,0,0,1,0,0s0,0,0,0v0h0s0,0,0,0h0a0,0,0,0,0,0,0v0s0,0,0,0h0v0s0,0-.06,0a0,0,0,0,0,0,0,.09.09,0,0,0,0,.06Zm.42.95c.16,0,.3-.14.44-.18s0,0,.07,0a.84.84,0,0,1,.17,0c.06,0,.14.07.19,0,.15-.27.23-.61.36-.89,0-.13-.11-.1-.12-.22S2.91,3,3,2.85s.1-.34.32-.22A.47.47,0,0,1,3.59,3,5.26,5.26,0,0,1,3,5.1C2.71,5.25,2.43,5,2.16,5a1.58,1.58,0,0,1-.81-.29C1.45,4.67,1.56,4.5,1.69,4.55Zm-.15-.74c-.05-.06.53-.3.49-.13A.34.34,0,0,0,2,4c0,.17.29.26,0,.33-.08,0-.15.13-.24.11a.59.59,0,0,1-.2-.4A.88.88,0,0,1,1.54,3.81Zm.17-1.47c0-.13.43.26.63.17,0,0,.12-.07.12,0v.11a.41.41,0,0,1,0,.08,2.71,2.71,0,0,1-.2.42.37.37,0,0,1-.67-.07C1.55,2.81,1.73,2.58,1.71,2.34ZM2,1.55a.3.3,0,0,0,.25-.14c0-.06-.09-.09-.13-.12a.17.17,0,1,1-.34,0,.73.73,0,0,0-.13.1C1.55,1.53,1.86,1.58,2,1.55ZM1.83,1.1A.5.5,0,0,1,2,1.1c.07,0,.16.1.16,0a.53.53,0,0,0-.52.05C1.67,1.18,1.79,1.08,1.83,1.1ZM2.58,4c.1.08,0,.17,0,.24s-.29.1-.38,0S2,3.92,2.1,3.7C2.31,3.72,2.44,3.92,2.58,4Zm-.36-1.9c.12,0,.29,0,.35-.1s-.06,0-.1,0a2.44,2.44,0,0,0-.26,0C2,2,2.05,2.07,2.22,2.12Zm.24-.35a.33.33,0,0,1-.17,0s0,0,0,0S2.47,1.86,2.46,1.77Zm.11-.63a.54.54,0,0,1,.31,0c.12,0-.09-.08-.14-.08a.68.68,0,0,0-.29,0C2.43,1.2,2.5,1.16,2.57,1.14Zm.08.38c.12,0,.47-.05.27-.2l-.06,0a.16.16,0,1,1-.31.05C2.43,1.41,2.57,1.52,2.65,1.52ZM4.44,8.39A2.55,2.55,0,0,1,5,8.54s.13.09.16,0a.3.3,0,0,1,.11-.25c.18-.08.42,0,.61,0a.94.94,0,0,1,.29,0,.75.75,0,0,0,.09.15c.08.06.15,0,.24-.09a.28.28,0,0,1,.42.19c.12.32-.28.45-.5.34,0,0-.13-.1-.14,0s0,.21-.1.23h-.9c-.1,0-.19-.1-.27-.18s-.31-.27-.53-.31A1.33,1.33,0,0,1,4.44,8.39Zm1.13-.45s-.05-.09,0-.16.22-.11.24,0,0,.1,0,.14.18.1.26.18-.09.1-.15.1a1.26,1.26,0,0,1-.51,0C5.34,8.06,5.5,8,5.57,7.94Zm.85.65c0,.16.25.21.3.06S6.47,8.46,6.42,8.59Z"/></g></g></svg>