<svg xmlns="http://www.w3.org/2000/svg" viewBox="0 0 802.18 170.86"><defs><style>.cls-1{fill:#0a0a0a;}.cls-2{fill:none;}</style></defs><g id="Camada_2" data-name="Camada 2"><g id="Layer_1" data-name="Layer 1"><path class="cls-1" d="M105.85,68.71h-21V62.44h48.79v6.27h-21v42.53h-6.69Z"/><path class="cls-1" d="M164.19,74.5h-.9v36.74h-6.7V62.44h48.8v6.27h-37v.91l38.13,37.08-4.88,5Z"/><path class="cls-1" d="M249.58,62.44h8.51l22.65,48.8h-7.32l-6.2-13.81H240.45l-6.2,13.81h-7.32Zm14.78,28.72L254.25,68.71h-.9L243.24,91.16Z"/><path class="cls-1" d="M292.1,62.44h7.32l19.1,41.82h.91L338.6,62.44h7.32l-22.66,48.8h-8.5Z"/><path class="cls-1" d="M368.22,62.44H417v6.27h-42.1V82.86h40v6.28h-40V105H417v6.28h-48.8Z"/><path class="cls-1" d="M440.37,94.3l6.48-2.09c3.77,11.36,11.78,13.66,21.82,13.66,8.51,0,18.27-2,18.27-8.51,0-3.27-2-6.55-10.81-7.87-7.39-1.12-12.83-1.89-18.82-2.72-10.53-1.54-15.69-6.14-15.69-12.76,0-8.57,8.86-12.55,22.52-12.55,12.69,0,23.63,6.28,28.23,13.18l-5.64,2.79c-4.88-6.42-13-9.62-23.29-9.62-8.5,0-14.91,2.23-14.91,6.13,0,3.42,3.13,5.58,11.78,6.83,6.13.91,15.4,2.16,16.87,2.37,12.4,1.82,17,8.51,17,14.08,0,9.55-10.1,14.92-26.21,14.92C450.69,112.14,443.51,103.43,440.37,94.3Z"/><path class="cls-1" d="M516.14,94.3l6.48-2.09c3.77,11.36,11.78,13.66,21.82,13.66,8.51,0,18.27-2,18.27-8.51,0-3.27-2-6.55-10.81-7.87-7.39-1.12-12.83-1.89-18.82-2.72C522.55,85.23,517.4,80.63,517.4,74c0-8.57,8.85-12.55,22.51-12.55,12.69,0,23.63,6.28,28.23,13.18l-5.64,2.79c-4.88-6.42-13-9.62-23.29-9.62-8.5,0-14.91,2.23-14.91,6.13,0,3.42,3.13,5.58,11.78,6.83,6.13.91,15.4,2.16,16.87,2.37,12.4,1.82,17,8.51,17,14.08,0,9.55-10.11,14.92-26.21,14.92C526.46,112.14,519.28,103.43,516.14,94.3Z"/><path class="cls-1" d="M591.91,94.3l6.48-2.09c3.77,11.36,11.79,13.66,21.82,13.66,8.51,0,18.27-2,18.27-8.51,0-3.27-2-6.55-10.81-7.87-7.39-1.12-12.82-1.89-18.82-2.72-10.52-1.54-15.68-6.14-15.68-12.76,0-8.57,8.85-12.55,22.51-12.55,12.69,0,23.63,6.28,28.23,13.18l-5.64,2.79c-4.88-6.42-13-9.62-23.28-9.62-8.51,0-14.92,2.23-14.92,6.13,0,3.42,3.14,5.58,11.78,6.83,6.13.91,15.4,2.16,16.87,2.37,12.41,1.82,17,8.51,17,14.08,0,9.55-10.11,14.92-26.21,14.92C602.23,112.14,595.05,103.43,591.91,94.3Z"/><path class="cls-1" d="M686.71,62.44h8.51l22.65,48.8h-7.32l-6.2-13.81H677.58l-6.2,13.81h-7.32Zm14.78,28.72L691.38,68.71h-.9L680.37,91.16Z"/><path class="cls-1" d="M715.64,146.33h-40V142h40Zm-45.3,0h-4.66V142h4.66Zm-10,0h-40V142h40Zm-45.29,0H610.4V142h4.66Zm-10,0h-40V142h40Zm-45.29,0h-4.67V142h4.67Zm-10,0h-40V142h40Zm-45.29,0h-4.66V142h4.66Zm-10,0h-40V142h40Zm-45.29,0h-4.67V142h4.67Zm-10,0h-40V142h40Zm-45.29,0h-4.66V142h4.66Zm-10,0H344V142h40Zm-45.29,0H334V142h4.67Zm-10,0h-40V142h40Zm-45.3,0h-4.66V142h4.66Zm-10,0h-40V142h40Zm-45.29,0H223.4V142h4.67Zm-10,0h-40V142h40Zm-45.3,0h-4.66V142h4.66Zm-10,0h-40V142h40Zm-45.29,0h-4.67V142h4.67Zm-10,0h-24A59,59,0,0,1,67.15,144l1.21-4.19A54.43,54.43,0,0,0,83.52,142h24Zm613.54-.05-.17-4.35c1.49-.06,3-.18,4.47-.36l.52,4.32C724.28,146.09,722.66,146.22,721.05,146.28ZM731.33,145l-.94-4.26a54.63,54.63,0,0,0,31.73-20.25l3.46,2.64A59,59,0,0,1,731.33,145ZM61.92,142.25c-1.5-.59-3-1.25-4.43-2l1.92-3.91c1.34.66,2.72,1.27,4.1,1.82Zm-9.28-4.63a59.16,59.16,0,0,1-25.19-31.89l4.14-1.36a54.76,54.76,0,0,0,23.34,29.54Zm716.09-19.06-3.7-2.31c.79-1.27,1.54-2.58,2.22-3.9l3.87,2C770.39,115.77,769.58,117.19,768.73,118.56Zm4.69-9.24-4-1.63a54.81,54.81,0,0,0,1.13-37.62l4.13-1.38a59.25,59.25,0,0,1-1.22,40.63ZM26,100.39c-.36-1.56-.65-3.16-.87-4.76l4.31-.6c.21,1.47.48,3,.81,4.41ZM24.59,90.13c0-.92-.06-1.86-.06-2.78a58.4,58.4,0,0,1,12.24-36L40.22,54A54.13,54.13,0,0,0,28.89,87.35c0,.85,0,1.72.06,2.58ZM768.66,65.3c-.6-1.36-1.26-2.71-2-4l3.82-2.08c.77,1.41,1.49,2.87,2.14,4.34ZM764,56.9a54.74,54.74,0,0,0-30.45-22.12l1.19-4.19a59.1,59.1,0,0,1,32.88,23.88ZM43.54,50.12l-3.19-3c1.09-1.18,2.25-2.32,3.44-3.4L46.72,47C45.62,48,44.55,49,43.54,50.12Zm7.12-6.43L48,40.21A58.52,58.52,0,0,1,83.51,28.36h3.3v4.36H83.52A54.18,54.18,0,0,0,50.66,43.69ZM728.59,33.62c-1.46-.27-3-.48-4.43-.63l.43-4.34c1.6.16,3.21.39,4.79.68Zm-9.55-.9H679.09V28.36h40Zm-45.28,0H669.1V28.36h4.66Zm-10,0h-40V28.36h40Zm-45.29,0h-4.67V28.36h4.67Zm-44.76,0H544.41V28.36h29.31Zm-34.64,0h-4.66V28.36h4.66Zm-10,0h-40V28.36h40Zm-45.29,0h-4.66V28.36h4.66Zm-10,0h-40V28.36h40Zm-45.3,0h-4.66V28.36h4.66Zm-10,0h-40V28.36h40Zm-45.29,0h-4.66V28.36h4.66Zm-10,0h-40V28.36h40Zm-45.3,0h-4.66V28.36h4.66Zm-10,0H268V28.36h40Zm-45.29,0H258V28.36h4.66Zm-10,0h-40V28.36h40Zm-45.29,0h-4.67V28.36h4.67Zm-10,0h-40V28.36h40Zm-45.29,0h-4.66V28.36h4.66Zm-10,0h-40V28.36h40Zm-45.29,0H92.14V28.36h4.67Z"/><polygon class="cls-1" points="582.45 42.97 570.02 30.54 582.45 18.11 585.53 21.19 576.18 30.54 585.53 39.89 582.45 42.97"/><rect class="cls-2" width="802.18" height="170.86"/></g></g></svg>