<svg xmlns="http://www.w3.org/2000/svg" viewBox="0 0 8.99 8.8"><defs><style>.cls-1{fill:#1d1d1b;}</style></defs><g id="Camada_2" data-name="Camada 2"><g id="Camada_1-2" data-name="Camada 1"><path class="cls-1" d="M1.12.92A3.14,3.14,0,0,1,3.72,0a2.75,2.75,0,0,1,1,.21A3.44,3.44,0,0,1,5.31.5a4.75,4.75,0,0,1,.75.59c.06,0,.13,0,.14.11A7,7,0,0,1,6.72,2c.07.23.14.47.2.7a4.17,4.17,0,0,1,.1.94,1.84,1.84,0,0,1-.09.77c-.08.29-.22.53-.31.79s-.38.44-.57.66a2.93,2.93,0,0,1-1.9,1.06A3.68,3.68,0,0,1,3.28,7a.89.89,0,0,1-.46,0A7.26,7.26,0,0,1,2,6.64l-.3-.18c-.09,0-.16-.13-.25-.15a1.86,1.86,0,0,1-.58-.57,1.45,1.45,0,0,1-.37-.53A3.71,3.71,0,0,1,.05,3,3,3,0,0,1,1.12.92ZM1,3.89a2.7,2.7,0,0,0,.24.86,2.72,2.72,0,0,0,1.7,1.3,2.62,2.62,0,0,0,2-.44A2.12,2.12,0,0,0,6,4.35a3.83,3.83,0,0,0,.16-1,3.47,3.47,0,0,0-.53-1.4,2.41,2.41,0,0,0-1-.75A2.63,2.63,0,0,0,4.15,1,1.56,1.56,0,0,1,3.74.9,1.66,1.66,0,0,0,2.89,1a3,3,0,0,0-1.34.79,2.76,2.76,0,0,1-.23.27.33.33,0,0,1-.07.21A3.09,3.09,0,0,0,1,2.91c0,.16-.06.31-.05.47A2.24,2.24,0,0,0,1,3.89Zm5.46,2c.09-.08.17,0,.21.06s.13.16.17.24a1.12,1.12,0,0,0,.33.32c.4.32.78.63,1.14,1A1.5,1.5,0,0,1,8.78,8a.86.86,0,0,1,.2.47c0,.18-.16.29-.32.29a5.86,5.86,0,0,1-.89-.47,4.91,4.91,0,0,1-.88-1,2.75,2.75,0,0,0-.54-.59C6.26,6.65,6,6.5,6,6.37A1.06,1.06,0,0,1,6.45,5.92Z"/></g></g></svg>